<?xml version="1.0" standalone="no"?>
<!DOCTYPE svg PUBLIC "-//W3C//DTD SVG 1.1//EN" "http://www.w3.org/Graphics/SVG/1.1/DTD/svg11.dtd" >
<svg xmlns="http://www.w3.org/2000/svg">
<metadata>Generated by IcoMoon</metadata>
<defs>
<font id="icomoon" horiz-adv-x="1024">
<font-face units-per-em="1024" ascent="960" descent="-64" />
<missing-glyph horiz-adv-x="1024" />
<glyph unicode="&#x20;" horiz-adv-x="512" d="" />
<glyph unicode="&#xe900;" glyph-name="shrink-o" d="M206.080 621.875l-206.080-158.054 206.080-187.597v345.651zM96.614 825.805h893.030c18.995 0 34.304 15.411 34.304 34.355s-15.309 34.355-34.304 34.355h-893.030c-18.995 0-34.355-15.411-34.355-34.355s15.36-34.355 34.355-34.355zM989.645 344.986h-680.499c-18.944 0-34.355-15.514-34.355-34.406 0-18.995 15.411-34.406 34.355-34.406h680.499c18.995 0 34.304 15.411 34.304 34.406 0 18.944-15.309 34.406-34.304 34.406zM989.645 70.093h-893.030c-18.995 0-34.355-15.411-34.355-34.304 0-18.995 15.36-34.304 34.355-34.304h893.030c18.995 0 34.304 15.309 34.304 34.304 0 18.893-15.309 34.304-34.304 34.304zM989.645 619.725h-680.499c-18.944 0-34.355-15.411-34.355-34.355 0-18.995 15.411-34.355 34.355-34.355h680.499c18.995 0 34.304 15.36 34.304 34.355s-15.309 34.355-34.304 34.355z" />
<glyph unicode="&#xe901;" glyph-name="search-o" d="M986.419 31.488l-144.282 144.026c70.861 87.040 108.493 195.686 105.728 309.811-3.021 125.286-53.914 242.074-143.309 328.55-89.395 86.528-206.694 132.403-329.984 129.434-123.392-2.97-238.336-54.682-323.533-145.562-175.821-187.443-168.602-485.325 15.923-663.962 89.395-86.426 204.134-129.331 318.822-129.331 104.243 0 208.026 35.84 292.608 106.342l145.818-145.664c8.755-8.448 19.968-12.646 31.13-12.646 11.776 0 23.757 4.762 32.614 14.234 8.294 8.858 12.646 20.429 12.339 32.666-0.256 12.288-5.274 23.706-13.875 32.102zM202.547 171.725c-163.994 158.72-170.291 423.424-14.080 589.875 75.571 80.691 177.715 126.72 287.386 129.331 3.379 0.102 6.912 0.102 10.291 0.102 105.882 0 205.978-40.602 282.982-115.098 79.411-76.8 124.723-180.582 127.283-291.994 2.714-111.36-37.478-217.19-113.203-297.83-156.109-166.605-416.614-173.056-580.659-14.387z" />
<glyph unicode="&#xe902;" glyph-name="cloud-manage-o" d="M727.946 360.133l-3.308 8.625c-5.002 12.091-10.004 25.915-15.006 34.54-5.002 12.091-11.658 20.756-20.007 31.074l-6.617 6.932-61.598-8.625c-11.618-1.772-23.316 6.932-26.624 17.25l-20.007 58.762-9.964 1.694c-31.665 6.932-63.252 6.932-93.184 0l-8.35-1.694-21.662-60.455c-5.002-10.398-16.62-17.29-26.624-15.557l-59.904 10.319-6.656-6.853c-16.66-20.756-29.972-43.244-38.282-69.159l-3.348-8.625 39.975-50.058c6.656-6.932 6.656-20.677 0-29.381l-41.63-48.325 3.308-8.625c3.348-13.863 10.004-27.687 16.66-39.778 5.002-10.398 11.658-20.677 19.968-29.381l6.695-6.853 63.212 10.319c10.004 1.772 21.622-5.159 24.97-15.557l19.968-60.455 10.004-1.694c31.626-6.932 63.212-6.932 94.878 0l8.35 1.694 21.622 62.228c3.308 10.319 15.006 17.25 24.97 15.557l61.558-10.398 6.656 6.932c16.66 18.983 28.318 43.166 36.667 67.387l3.308 8.625-39.975 48.325c-6.656 8.704-6.656 22.449 0 31.153l39.975 50.058zM649.413 261.75l24.103-29.775c-4.49-14.060-12.052-26.624-19.614-37.612l-37.73 6.302c-22.607 4.687-48.325-10.91-55.847-34.462l-13.548-39.148c-18.156-3.072-37.77-3.072-55.847 0l-12.091 37.612c-7.522 23.473-31.705 39.148-55.847 35.998l-40.724-6.302c-4.49 4.766-7.522 9.452-10.594 15.675-4.529 7.838-7.522 14.060-10.555 21.937l25.6 31.311c15.124 18.786 15.124 48.522 0 67.308l-25.6 31.39c5.986 12.446 12.091 26.624 21.11 37.534l37.73-6.223c24.143-4.687 49.782 10.91 57.344 34.383l13.588 37.612c18.078 3.151 36.234 3.151 54.311 0l12.091-35.998c7.522-23.552 31.705-39.148 55.847-35.998l39.227 4.687c4.529-6.302 7.522-10.988 10.555-17.25 4.529-7.838 7.522-14.060 10.594-20.401l-25.639-31.311c-15.084-18.747-13.588-48.522 1.536-67.269zM829.952 574.188c-14.021 123.746-111.183 223.508-238.041 244.421-126.779 20.913-252.652-41.984-308.342-154.191-13.903 4.529-28.514 6.932-43.205 7.089-79.596 0-144.108-62.385-144.108-139.461 0.236-14.769 2.914-29.381 7.995-43.402-81.684-45.292-121.541-138.24-97.122-226.225s107.047-149.071 201.216-148.677h48.482v53.445h-57.423c-81.841 0.158-148.165 64.315-148.362 143.478-0.039 51.082 28.278 98.225 74.161 123.471 45.135 25.167 48.128 30.011 29.342 75.303-2.875 7.838-4.411 16.148-4.647 24.458 0 44.071 36.943 79.754 82.432 79.754 15.242 0.551 30.326-2.009 44.505-7.404 37.967-14.612 41.866 0 59.707 37.061 44.662 89.561 145.211 139.737 246.548 122.959 101.297-16.699 179.042-96.256 190.543-195.111 3.978-45.529 3.978-45.529 53.327-56.399 93.381-15.478 158.562-97.989 149.662-189.164-9.019-91.294-89.246-160.374-183.926-158.444h-43.52v-53.445h35.643c123.51 0.473 226.462 91.53 238.119 210.471s-71.798 227.092-192.985 250.014zM518.223 372.185c-41.59 0-74.87-34.54-74.87-77.706 0-43.244 33.319-77.785 74.87-77.785 39.975 0 74.87 34.54 74.87 77.785 0.039 43.166-33.241 77.706-74.87 77.706zM518.223 258.284c-19.535 0-34.895 15.911-34.895 36.234 0 20.244 15.36 36.155 34.895 36.155s34.895-15.911 34.895-36.155c0-20.322-15.36-36.234-34.895-36.234z" />
<glyph unicode="&#xe903;" glyph-name="arrow-under" d="M0 768h1024l-514.048-640-509.952 640z" />
<glyph unicode="&#xe904;" glyph-name="explanation-o" d="M513.536 727.757c-31.437 0-68.557-26.982-68.557-57.498l26.368-303.821c6.502-32.512 21.35-40.704 40.55-44.288 20.173 0 40.55 15.002 43.52 47.206l23.603 299.674c0 30.464-33.946 58.726-65.485 58.726zM569.088 225.331c0-31.529-25.559-57.088-57.088-57.088s-57.088 25.559-57.088 57.088c0 31.529 25.559 57.088 57.088 57.088s57.088-25.559 57.088-57.088zM512 960c-282.726 0-512-229.274-512-512s229.274-512 512-512 512 229.274 512 512-229.274 512-512 512zM512-12.8c-254.464 0-460.8 206.285-460.8 460.8s206.336 460.8 460.8 460.8c254.515 0 460.8-206.285 460.8-460.8s-206.285-460.8-460.8-460.8z" />
<glyph unicode="&#xe905;" glyph-name="support-o" d="M945.152 874.65h-275.61c-64.256 0-121.498-28.058-157.491-71.219-35.942 43.162-93.133 71.219-157.44 71.219h-275.814c-43.469 0-78.797-32-78.797-71.219v-657.766c0-39.219 35.328-71.168 78.797-71.168h289.587c38.707-34.099 90.010-53.197 143.667-53.197 53.76 0 105.011 19.098 143.77 53.197h289.331c43.469 0 78.848 31.949 78.848 71.168v657.766c0 39.219-35.379 71.219-78.848 71.219v0zM958.31 136.499h-315.802c-11.725 0-23.040-4.506-30.771-12.698-25.344-26.726-61.798-42.138-99.686-42.138-37.786 0-74.291 15.411-99.635 42.138-7.629 8.192-18.995 12.698-30.771 12.698h-316.006v677.734h284.006c67.072 0 121.702-49.357 121.702-109.875v-311.45c0-20.224 18.278-36.557 40.55-36.557 22.426 0 40.499 16.435 40.499 36.557v311.45c0 60.57 54.682 109.875 121.754 109.875h284.16v-677.734z" />
<glyph unicode="&#xe906;" glyph-name="company-o" d="M978.79 256.41h-75.315v191.59c0 24.422-20.224 44.186-45.21 44.186h-316.211v147.405h75.315c24.883 0 45.21 19.814 45.21 44.186v206.438c0 24.371-20.275 44.186-45.21 44.186h-210.79c-24.883 0-45.21-19.866-45.21-44.186v-206.387c0-24.422 20.275-44.186 45.21-44.186h75.315v-147.405h-316.314c-24.883 0-45.107-19.814-45.107-44.186v-191.59h-75.264c-24.934-0.051-45.21-19.866-45.21-44.237v-206.387c0-24.371 20.275-44.237 45.21-44.237h210.79c24.883 0 45.21 19.866 45.21 44.186v206.387c0 24.422-20.275 44.186-45.21 44.186h-75.315v176.845h301.21v-176.845h-75.315c-24.883 0-45.21-19.814-45.21-44.186v-206.387c0-24.371 20.275-44.186 45.21-44.186h210.79c24.883 0 45.21 19.866 45.21 44.186v206.387c0 24.422-20.275 44.186-45.21 44.186h-75.315v176.845h301.21v-176.845h-75.264c-24.883 0-45.21-19.814-45.21-44.186v-206.387c0-24.371 20.275-44.186 45.21-44.186h210.79c24.883 0 45.21 19.866 45.21 44.186v206.387c0 24.422-20.275 44.237-45.21 44.237v0zM406.323 890.419h211.302v-206.848h-211.302v206.848zM257.587 213.76v-209.459h-214.016v209.459h214.016zM614.195 9.011h-204.39v200.038h204.39v-200.038zM975.616 9.011h-204.39v200.038h204.39v-200.038z" />
<glyph unicode="&#xe907;" glyph-name="project-o" d="M1024 595.046c0 76.749-62.157 138.906-138.906 138.906-3.123 0-5.99-0.717-9.062-0.922-81.408 132.915-227.482 221.85-394.701 221.85-94.925 0-183.194-28.672-256.717-77.722-23.603 18.79-53.094 30.464-85.658 30.464-76.749 0-138.957-62.208-138.957-138.906 0-43.213 20.122-81.254 50.995-106.701-20.838-52.736-32.717-109.978-32.717-170.138 0-196.608 122.726-364.237 295.68-431.411 9.523-67.43 66.918-119.45 137.011-119.45 62.976 0 115.507 42.086 132.557 99.482 199.322 44.954 349.491 218.368 359.68 428.749 47.667 22.067 80.794 69.939 80.794 125.798zM588.851 89.702c-5.069 72.038-64.461 129.126-137.83 129.126-66.509 0-121.907-46.797-135.526-109.158-147.558 64.154-250.829 211.046-250.829 382.208 0 51.763 9.83 101.018 27.085 146.688 14.746-5.325 30.566-8.755 47.258-8.755 76.698 0 138.854 62.106 138.854 138.854 0 27.136-8.090 52.224-21.504 73.626 64.87 41.83 141.978 66.355 224.973 66.355 145.152 0 272.794-74.291 347.443-186.778-48.64-21.658-82.637-70.144-82.637-126.822 0-76.749 62.208-138.854 138.957-138.854 3.84 0 7.475 0.819 11.213 1.126-14.592-177.459-140.237-323.021-307.456-367.616z" />
<glyph unicode="&#xe908;" glyph-name="to-do-items-o" d="M697.6 399.974h-192v256c0 17.766-14.285 32-32 32s-32-14.234-32-32v-287.949c0-17.766 14.285-32.051 32-32.051h224c17.715 0 32 14.285 32 32.051 0 17.715-14.285 31.949-32 31.949zM512 960c-282.726 0-512-229.274-512-512s229.274-512 512-512c282.778 0 512.102 229.274 512.102 512s-229.325 512-512.102 512zM512-12.8c-254.464 0-460.8 206.285-460.8 460.8s206.336 460.8 460.8 460.8c254.515 0 460.902-206.285 460.902-460.8s-206.387-460.8-460.902-460.8z" />
<glyph unicode="&#xe909;" glyph-name="examination-o" d="M211.2 484.25c-1.69 68.045 22.886 132.864 69.325 182.118 1.382 1.587 2.816 3.072 4.403 4.608 45.67 46.49 106.394 72.909 171.366 74.496 36.198 0.87 70.707-6.042 102.093-19.405l38.912 39.526c-42.701 21.76-91.085 33.485-142.182 32.307-80.896-1.946-156.109-35.533-211.814-95.386-55.808-59.443-85.402-137.472-83.507-219.494 1.075-45.875 11.981-89.907 31.59-129.69l38.81 39.526c-11.674 28.57-18.176 59.443-18.995 91.392zM997.683 85.504l-150.579 145.715c52.122 79.565 79.36 173.107 77.005 270.643-3.021 125.286-53.914 242.074-143.309 328.55-89.395 86.528-206.694 132.403-329.984 129.434-123.392-3.021-238.336-54.682-323.533-145.613-175.821-187.443-168.602-485.325 15.923-663.962 89.395-86.426 204.083-129.331 318.822-129.331 93.594 0 186.88 28.826 266.189 85.76l151.706-146.79c16.486-16.026 37.683-23.91 58.88-23.91 22.426 0 45.005 8.96 61.798 26.931 15.718 16.742 24.013 38.707 23.398 61.901-0.512 23.142-9.882 44.749-26.317 60.672zM178.79 188.262c-163.994 158.72-170.291 423.424-14.080 589.875 75.571 80.64 177.715 126.669 287.386 129.331 3.379 0.102 6.912 0.102 10.291 0.102 105.882 0 205.978-40.602 282.982-115.098 79.411-76.8 124.723-180.582 127.283-291.994 2.714-111.36-37.478-217.19-113.203-297.83-156.16-166.656-416.666-173.107-580.659-14.387zM963.277-1.075c-12.902-13.722-34.304-14.285-47.821-1.178l-137.114 132.762c8.499 7.731 16.486 15.821 24.218 24.064 7.68 8.090 15.104 16.691 22.426 25.702l137.114-132.71c13.517-13.158 14.080-34.867 1.178-48.64zM732.621 628.48l-38.81-39.475c11.776-28.518 18.79-59.597 19.507-92.314 3.277-140.698-106.598-257.894-244.992-261.325-35.891-0.819-70.912 5.99-103.219 19.712l-38.912-39.578c43.776-22.426 92.826-33.69 143.309-32.512 80.794 1.946 153.498 36.147 206.49 90.061 56.525 57.344 90.778 137.37 88.781 224.87-1.075 47.002-12.698 91.136-32.154 130.56zM654.182 624.589c30.822 0 55.91 25.498 55.91 56.781s-25.088 56.781-55.91 56.781-55.91-25.498-55.91-56.781 25.139-56.781 55.91-56.781zM654.182 706.56c13.619 0 24.678-11.315 24.678-25.139s-11.11-25.139-24.678-25.139-24.781 11.315-24.781 25.139 11.213 25.139 24.781 25.139zM270.285 356.352c-30.822 0-55.91-25.498-55.91-56.781s25.088-56.781 55.91-56.781 55.91 25.498 55.91 56.781-25.088 56.781-55.91 56.781zM270.285 274.432c-13.619 0-24.678 11.264-24.678 25.088s11.11 25.088 24.678 25.088 24.678-11.315 24.678-25.088c0.051-13.824-11.059-25.088-24.678-25.088zM420.198 382.31c0-31.283 25.088-56.781 55.91-56.781s55.91 25.498 55.91 56.781c0 29.952-23.194 53.965-52.224 56.013l-9.882 131.584c18.893 9.114 32.205 28.365 32.205 50.944 0 31.283-25.088 56.781-55.91 56.781s-55.91-25.498-55.91-56.781 25.088-56.781 55.91-56.781c0.358 0 0.666 0.205 1.024 0.205l9.779-129.126c-21.35-7.987-36.813-28.467-36.813-52.838zM446.208 595.763c-13.619 0-24.678 11.315-24.678 25.088 0 13.875 11.11 25.088 24.678 25.088 13.722 0 24.781-11.162 24.781-25.088 0-13.824-11.11-25.088-24.781-25.088zM476.109 407.398c13.619 0 24.678-11.264 24.678-25.088s-11.11-25.139-24.678-25.139-24.678 11.315-24.678 25.139 11.059 25.088 24.678 25.088z" />
<glyph unicode="&#xe90a;" glyph-name="warning-o" d="M131.994 153.6l77.824 147.2v275.2c0 96 41.83 185.6 107.725 249.6 29.85 25.6 65.741 44.8 101.683 57.6 5.99 44.8 41.882 76.8 89.754 76.8s83.814-32 95.693-76.8c65.894-25.6 125.747-76.8 161.638-140.8 11.981-12.8 5.99-32-5.99-44.8-11.93-6.4-29.901-6.4-41.83 12.8-35.994 57.6-83.814 96-149.709 115.2-11.93 6.4-23.859 12.8-23.859 32 5.99 19.2-11.981 38.4-35.891 38.4-23.962 0-41.882-19.2-41.882-44.8 0-12.8-11.981-25.6-23.962-32-35.891-12.8-65.843-25.6-95.744-51.2-53.862-51.2-83.814-121.6-83.814-198.4v-275.2c0-6.4 0-12.8-5.939-12.8l-53.914-108.8h610.406l-53.862 108.8c0 6.4-5.939 12.8-5.939 12.8v102.4h-53.862c-11.981 0-23.962 6.4-29.952 19.2l-47.872 115.2-77.773-134.4c-5.99-12.8-17.971-19.2-23.962-12.8-11.93 0-17.971 6.4-23.962 19.2l-143.616 288c-5.99 12.8 0 32 11.981 44.8 11.878 6.4 29.901 0 41.83-12.8l119.706-236.8 71.782 121.6c5.939 12.8 17.971 19.2 29.952 12.8 11.93 0 17.92-6.4 23.91-19.2l65.843-140.8h65.792c17.971 0 29.952-12.8 29.952-32v-121.6l77.824-147.2c5.99-12.8 5.99-19.2 0-32s-18.022-12.8-23.962-12.8h-161.536c-18.022-102.4-95.795-179.2-191.488-179.2-95.795 0-173.619 76.8-185.549 172.8h-173.568c-11.93 0-17.971 6.4-23.91 12.8-5.939 12.8-5.939 19.2 0.051 32v0zM515.021 0c59.802 0 113.715 44.8 125.645 108.8h-251.341c11.981-64 65.792-108.8 125.696-108.8v0z" />
<glyph unicode="&#xe90b;" glyph-name="resources-o" d="M1020.672 662.682c0 0.102 0 0.205 0.102 0.205 0.614 1.024 1.024 1.894 1.382 2.918 0.307 0.512 0.512 1.024 0.717 1.382 0.307 0.819 0.307 1.485 0.512 2.253 0.256 0.87 0.512 1.587 0.563 2.355 0.051 0.461 0 0.87 0 1.229 0.051 1.178 0.154 2.253 0 3.379-0.051 0.512-0.256 1.075-0.358 1.587-0.205 0.922-0.307 1.946-0.614 2.97-0.205 0.461-0.461 0.87-0.614 1.331-0.41 1.075-0.819 2.048-1.28 3.072 0 0.051-0.102 0.154-0.102 0.205-0.307 0.461-0.614 0.87-0.922 1.331-0.614 0.819-1.075 1.638-1.792 2.406-0.614 0.666-1.229 1.229-1.792 1.792-0.614 0.512-1.075 1.075-1.69 1.485-0.922 0.717-1.792 1.28-2.867 1.792-0.461 0.205-0.768 0.563-1.126 0.768l-0.461 0.205c0 0-0.102 0-0.154 0.051l-310.528 159.13c-0.154 0.102-0.307 0.205-0.563 0.307-0.819 0.307-1.485 0.614-2.304 0.973s-1.69 0.666-2.611 0.973c-0.512 0.102-1.024 0.205-1.485 0.256-1.178 0.358-2.304 0.563-3.43 0.666h-1.178c-1.28 0.102-2.56 0.102-3.891-0.051-0.512-0.051-1.024-0.205-1.434-0.256-1.126-0.154-2.253-0.358-3.482-0.717-0.614-0.205-1.075-0.41-1.587-0.614-1.075-0.41-2.048-0.717-3.174-1.28l-0.461-0.205-162.048-82.637-162.458 82.842c-1.024 0.614-2.099 0.819-3.123 1.178-0.461 0.256-1.024 0.461-1.587 0.614-1.28 0.41-2.406 0.614-3.686 0.717-0.358 0.051-0.819 0.205-1.178 0.307-1.434 0.102-2.816 0.102-4.096 0h-0.922c-1.28-0.102-2.56-0.307-3.789-0.614-0.41-0.154-0.819-0.154-1.229-0.256-1.024-0.358-1.843-0.768-2.918-1.126-0.614-0.102-1.382-0.41-1.946-0.717-0.205-0.102-0.41-0.102-0.614-0.307l-311.091-159.334c-0.512-0.256-0.87-0.614-1.178-0.87-1.024-0.461-1.997-1.075-2.918-1.741l-1.741-1.587c-0.563-0.614-1.28-1.075-1.792-1.69-0.666-0.768-1.178-1.69-1.792-2.509-0.307-0.461-0.717-0.819-0.87-1.178-0.051-0.051-0.051-0.205-0.051-0.256-0.614-0.973-0.973-1.946-1.382-2.867-0.205-0.614-0.512-1.024-0.666-1.536-0.256-0.768-0.358-1.536-0.512-2.406-0.102-0.768-0.307-1.382-0.41-2.15v-1.894c0-0.922-0.051-1.792 0-2.714 0.102-0.614 0.307-1.28 0.461-1.843 0.154-0.973 0.307-1.894 0.563-2.765 0.307-0.563 0.563-0.973 0.819-1.434 0.41-1.024 0.87-1.997 1.331-2.918 0-0.051 0.051-0.102 0.051-0.256 0.205-0.154 0.41-0.256 0.512-0.563 0.922-1.382 1.997-2.714 3.226-3.891 0.461-0.358 0.819-0.768 1.382-1.178 1.126-0.973 2.355-1.741 3.635-2.611 0.461-0.307 0.922-0.563 1.434-0.87 0.205-0.102 0.358-0.102 0.41-0.205l139.571-67.226-121.293-53.402c-0.41-0.154-0.87-0.461-1.28-0.666-0.922-0.461-1.741-0.87-2.406-1.434-0.768-0.41-1.382-0.87-1.997-1.434s-1.28-1.024-1.792-1.587c-0.717-0.666-1.331-1.434-1.894-1.997-0.358-0.41-0.717-0.768-1.024-1.178-0.102-0.051-0.205-0.307-0.307-0.512-0.512-0.768-0.922-1.536-1.331-2.253-0.358-0.717-0.768-1.382-1.075-1.997-0.307-0.717-0.41-1.382-0.717-2.15-0.154-0.973-0.41-1.587-0.512-2.406-0.102-0.768-0.102-1.434-0.154-2.099-0.102-0.87-0.205-1.69-0.205-2.304 0-0.922 0.205-1.536 0.307-2.304 0.102-0.819 0.205-1.69 0.41-2.406 0.102-0.666 0.358-1.229 0.614-1.997 0.256-0.922 0.563-1.69 1.024-2.509 0.051-0.256 0.154-0.41 0.256-0.666 0.102-0.205 0.358-0.41 0.512-0.666 0.87-1.434 1.843-2.97 3.174-4.301 0.307-0.256 0.512-0.666 0.922-0.973 1.382-1.28 2.816-2.458 4.506-3.584l156.826-94.925c-0.461-1.69-0.768-3.482-0.768-5.325v-141.312c0-0.41 0.205-0.819 0.205-1.178 0.051-1.178 0.102-2.355 0.358-3.379 0.154-0.819 0.461-1.382 0.768-2.202 0.205-0.819 0.41-1.434 0.717-2.202 0.307-0.819 0.768-1.434 1.075-2.048 0.41-0.717 0.768-1.434 1.229-2.099 0.461-0.717 1.075-1.178 1.536-1.792 0.614-0.512 1.024-1.178 1.587-1.792 0.922-0.717 1.792-1.382 2.816-2.048 0.41-0.307 0.717-0.717 1.126-0.87l0.051-0.102 300.544-187.597c0.512-0.256 1.126-0.512 1.741-0.768 0.614-0.461 1.178-0.717 1.69-0.973 0.922-0.41 1.894-0.819 2.918-1.075 0.461-0.154 0.973-0.307 1.434-0.41 0.358-0.154 0.768-0.256 1.075-0.256 1.894-0.41 3.789-0.717 5.734-0.717v-0.102c0.154 0.205 0.154 0.307 0.154 0.307 1.997 0 3.891 0.307 5.683 0.717 0.461 0 0.768 0.154 1.178 0.256 0.512 0.154 1.024 0.307 1.434 0.461 1.075 0.256 1.946 0.666 2.867 1.024 0.614 0.307 1.126 0.563 1.69 0.87 0.563 0.41 1.178 0.666 1.638 0.973 0.051 0 0.154 0 0.154 0.102l300.493 187.546c0.563 0.307 0.922 0.717 1.331 0.973 0.87 0.717 1.843 1.331 2.56 1.946 0.666 0.666 1.178 1.331 1.69 1.792 0.41 0.666 1.024 1.178 1.485 1.741 0.461 0.717 0.819 1.434 1.178 2.099 0.41 0.717 0.87 1.331 1.178 2.099 0.307 0.819 0.563 1.331 0.819 2.202 0.205 0.819 0.512 1.382 0.614 2.202 0.307 1.178 0.41 2.304 0.461 3.482 0 0.307 0.154 0.717 0.154 1.075v141.21c0 1.741-0.307 3.533-0.717 5.222l156.826 94.976c1.587 1.075 3.174 2.304 4.506 3.482 0.307 0.41 0.563 0.819 0.87 1.024 1.28 1.331 2.355 2.867 3.226 4.403 0.205 0.154 0.307 0.41 0.512 0.666 0.102 0.154 0.102 0.41 0.256 0.614 0.461 0.87 0.768 1.638 1.075 2.56 0.307 0.717 0.41 1.28 0.717 1.894 0.154 0.819 0.307 1.536 0.307 2.406 0.154 0.768 0.307 1.382 0.307 2.202s0 1.536-0.102 2.355c-0.051 0.819-0.051 1.382-0.205 2.202-0.154 0.768-0.41 1.434-0.614 2.202-0.256 0.819-0.41 1.536-0.819 2.253-0.307 0.717-0.614 1.28-0.922 1.894-0.461 0.922-0.922 1.638-1.485 2.458-0.102 0.102-0.102 0.41-0.307 0.512-0.307 0.41-0.717 0.768-1.024 1.075-0.614 0.717-1.178 1.382-1.792 2.048-0.614 0.614-1.178 1.075-1.843 1.536-0.614 0.512-1.331 1.075-1.946 1.434-0.819 0.614-1.69 1.075-2.611 1.434-0.41 0.205-0.87 0.614-1.28 0.768l-121.139 53.35 139.469 67.226c0.102 0.205 0.256 0.205 0.41 0.307l1.28 0.819c1.485 0.87 2.714 1.638 3.891 2.714 0.41 0.358 0.922 0.819 1.28 1.178 1.28 1.229 2.406 2.56 3.277 4.045 0.358-0.051 0.512 0.051 0.666 0.256v0 0zM686.643 361.83l-123.546 73.574 250.214 122.931 114.33-50.381-240.998-146.125zM337.357 361.83l-241.050 146.125 114.381 50.381 250.163-122.931-123.494-73.574zM337.254 806.451l121.958-62.31-248.422-131.738-130.048 62.669 256.512 131.379zM512 464.384l-247.040 121.498 247.040 130.97 247.194-130.97-247.194-121.498zM564.787 744.192l121.958 62.31 256.512-131.328-129.894-62.72-248.576 131.738zM322.765 313.395c0.307-0.154 0.666-0.307 1.024-0.41 1.485-0.819 2.97-1.382 4.557-1.946 0.666-0.256 1.331-0.563 2.15-0.819 2.099-0.563 4.301-0.819 6.502-0.819 0.051 0 0.102-0.154 0.307-0.154v0 0c0.051 0 0.102 0.154 0.307 0.154 2.15 0 4.352 0.256 6.502 0.819 0.717 0.256 1.382 0.563 1.997 0.819 1.536 0.41 3.123 1.075 4.608 1.792 0.256 0.154 0.614 0.256 0.922 0.41l125.747 80.026v-285.696l-239.718 154.726v102.605l85.094-51.507zM786.432 262.298l-248.371-154.726v285.696l134.349-80.026c0.41-0.154 0.717-0.256 1.024-0.41 1.434-0.819 3.021-1.382 4.506-1.946 0.717-0.102 1.28-0.41 1.997-0.666 2.099-0.563 4.403-0.819 6.554-0.819 0.051 0 0.154-0.154 0.307-0.154v0 0c0 0 0.051 0.154 0.154 0.154 2.304 0 4.506 0.256 6.707 0.973 0.768 0.102 1.382 0.41 1.997 0.614 1.587 0.614 3.174 1.229 4.506 1.997 0.41 0.256 0.819 0.256 1.075 0.41l85.248 51.507v-102.605h-0.051z" />
<glyph unicode="&#xe90c;" glyph-name="calculate-o" d="M901.53 960h-779.059c-35.84 0-64.922-29.133-64.922-64.973v-173.107c0-35.789 29.082-64.973 64.922-64.973h779.11c35.789 0 64.922 29.133 64.922 64.973v173.107c-0.051 35.84-29.133 64.973-64.973 64.973zM923.136 721.971c0-11.93-9.677-21.658-21.606-21.658h-779.059c-11.878 0-21.606 9.677-21.606 21.658v173.056c0 11.878 9.677 21.658 21.606 21.658h779.11c11.878 0 21.606-9.728 21.606-21.658v-173.056zM209.459 851.763h43.315v-86.528h-43.315v86.528zM333.466 851.763h43.315v-86.528h-43.315v86.528zM818.995 808.499c0-23.894-19.37-43.264-43.264-43.264s-43.264 19.37-43.264 43.264c0 23.894 19.37 43.264 43.264 43.264s43.264-19.37 43.264-43.264zM901.53 599.501h-779.059c-35.789 0-64.922-29.184-64.922-64.973v-173.107c0-35.84 29.082-64.973 64.922-64.973h779.11c35.789 0 64.922 29.082 64.922 64.973v173.107c-0.051 35.789-29.133 64.973-64.973 64.973zM923.136 361.472c0-11.93-9.677-21.658-21.606-21.658h-779.059c-11.878 0-21.606 9.677-21.606 21.658v173.056c0 11.93 9.677 21.658 21.606 21.658h779.11c11.878 0 21.606-9.677 21.606-21.658v-173.056zM209.459 491.315h43.315v-86.579h-43.315v86.579zM333.466 491.315h43.315v-86.579h-43.315v86.579zM819.046 448c0-23.922-19.393-43.315-43.315-43.315s-43.315 19.393-43.315 43.315c0 23.922 19.393 43.315 43.315 43.315s43.315-19.393 43.315-43.315zM901.53 238.95h-779.059c-35.789 0-64.922-29.133-64.922-64.973v-173.107c0-35.789 29.082-64.87 64.922-64.87h779.11c35.789 0 64.922 29.082 64.922 64.922v173.107c-0.051 35.789-29.133 64.922-64.973 64.922zM923.136 0.922c0-11.878-9.677-21.658-21.606-21.658h-779.059c-11.878 0-21.606 9.728-21.606 21.658v173.107c0 11.93 9.677 21.658 21.606 21.658h779.11c11.878 0 21.606-9.677 21.606-21.658v-173.107zM209.459 130.765h43.315v-86.528h-43.315v86.528zM333.466 130.765h43.315v-86.528h-43.315v86.528zM818.995 87.45c0-23.894-19.37-43.264-43.264-43.264s-43.264 19.37-43.264 43.264c0 23.894 19.37 43.264 43.264 43.264s43.264-19.37 43.264-43.264z" />
<glyph unicode="&#xe90d;" glyph-name="network-o" d="M848.282 949.299c-89.549 0-162.662-67.379-173.568-154.010l-147.712-19.917c-31.027 100.301-123.443 173.773-233.83 173.773-135.629 0-246.067-110.336-246.067-246.067 0-108.186 70.707-199.322 167.987-232.090l-36.301-173.107c-1.075 0-2.099 0.256-3.123 0.256-96.973 0-175.667-78.797-175.667-175.718s78.694-175.718 175.718-175.718c96.973 0 175.77 78.797 175.77 175.718 0 71.373-42.906 132.608-104.038 160.102l36.864 175.514c2.918-0.102 5.837-0.87 8.858-0.87 52.685 0 101.222 16.998 141.312 45.312l143.923-160.307c-15.514-22.528-24.576-49.766-24.576-79.155 0-77.517 63.078-140.595 140.595-140.595 77.568 0 140.646 63.078 140.646 140.595s-63.078 140.595-140.646 140.595c-22.682 0-43.776-5.888-62.72-15.462l-146.534 163.021c33.28 41.984 54.016 94.413 54.016 151.962 0 1.075-0.307 1.997-0.307 2.97l141.414 18.995c21.197-73.267 88.115-127.181 168.038-127.181 96.973-0.051 175.667 78.746 175.667 175.667s-78.694 175.718-175.718 175.718zM300.339 122.419c0-68.762-55.962-124.621-124.672-124.621-68.813 0-124.723 55.859-124.723 124.621s55.91 124.723 124.723 124.723c68.71-0.051 124.672-56.013 124.672-124.723zM100.71 703.078c0 106.24 86.272 192.512 192.461 192.512 106.138 0 192.41-86.272 192.41-192.512 0-106.138-86.272-192.41-192.41-192.41-106.24 0.051-192.461 86.272-192.461 192.41zM784.691 263.014c0-49.818-40.499-90.317-90.368-90.317s-90.317 40.499-90.317 90.317c0 49.869 40.448 90.317 90.317 90.317s90.368-40.499 90.368-90.317zM848.282 652.493c-66.714 0-121.037 54.374-121.037 121.088s54.374 120.986 121.037 120.986c66.816 0 121.088-54.272 121.088-120.986s-54.272-121.088-121.088-121.088z" />
<glyph unicode="&#xe90e;" glyph-name="storage-o" d="M870.4 902.4c-89.6 38.4-217.6 57.6-358.4 57.6s-268.8-19.2-358.451-57.6c-102.4-44.8-153.549-96-153.549-159.949v-595.251c0-57.6 51.149-115.251 153.549-153.6 89.651-38.4 217.651-57.6 358.451-57.6s268.8 19.2 358.4 57.6c95.898 38.349 153.6 96 153.6 153.6v595.251c0 63.949-51.2 115.149-153.6 159.949v0zM812.8 640.051c-83.2-32-198.4-44.851-300.8-44.851-108.8 0-217.549 12.851-300.8 44.851-96.051 25.549-140.8 63.949-140.8 102.4 0 38.4 51.149 76.749 140.8 108.749 83.251 32.051 192 44.851 300.8 44.851 102.4 0 217.6-19.2 300.8-44.851 89.6-32 140.8-70.349 140.8-108.749 0-38.451-44.8-76.851-140.8-102.4v0zM819.2 454.4c-83.098-25.6-198.4-44.8-307.2-44.8s-217.549 19.2-307.2 44.8c-89.651 32-140.8 70.451-140.8 108.8v70.4c64.051-25.549 108.8-57.549 179.2-70.4 83.149-19.2 172.8-32 268.8-32s185.6 12.8 268.8 32c70.4 12.851 115.098 44.851 179.2 70.4v-76.8c0-31.949-51.2-70.4-140.8-102.4v0zM819.2 249.6c-83.098-25.6-198.4-44.8-307.2-44.8s-217.549 19.2-307.2 44.8-140.8 64-140.8 108.8v96c64.051-31.949 108.8-57.6 179.2-76.8 83.149-19.2 172.8-32 268.8-32s185.6 12.8 268.8 32c70.4 19.2 115.098 44.851 179.2 76.8v-96c0-44.8-51.2-83.2-140.8-108.8v0zM512-0.051c-108.8 0-217.549 19.251-307.2 44.851s-140.8 64-140.8 108.8v96c64.051-32.051 108.8-57.6 179.2-76.8 76.749-19.2 172.8-32 262.4-32 96.051 0 185.6 12.8 268.902 32 76.698 19.2 121.395 44.749 185.498 76.8v-96c0-38.451-51.2-76.8-140.8-108.8-83.098-32.051-204.8-44.851-307.2-44.851v0z" />
<glyph unicode="&#xe90f;" glyph-name="statistical-o" d="M982.067 84.89h-898.15v766.003c0 22.016-18.79 39.731-41.984 39.731s-41.933-17.715-41.933-39.731v-805.734c0-22.016 18.739-39.782 41.933-39.782h940.134c23.194 0 41.933 17.818 41.933 39.782s-18.739 39.731-41.933 39.731zM366.387 139.571h1.126c22.938 0 41.523 18.586 41.523 41.523v273.562c0 22.886-18.534 41.523-41.523 41.523h-1.126c-22.835 0-41.523-18.586-41.523-41.523v-273.613c0.051-22.886 18.688-41.472 41.523-41.472zM817.715 139.571c22.733 0 41.165 18.381 41.165 41.165v184.678c0 22.733-18.381 41.165-41.165 41.165s-41.165-18.381-41.165-41.165v-184.678c0-22.784 18.381-41.165 41.165-41.165zM592.794 139.571c22.733 0 41.165 18.381 41.165 41.165v541.235c0 22.733-18.381 41.165-41.165 41.165s-41.165-18.381-41.165-41.165v-541.235c0-22.784 18.432-41.165 41.165-41.165z" />
<glyph unicode="&#xe910;" glyph-name="enlarge-o" d="M817.92 274.125l206.080 158.054-206.080 187.597v-345.651zM927.386 70.195h-893.030c-18.995 0-34.304-15.411-34.304-34.355s15.309-34.355 34.304-34.355h893.030c18.995 0 34.355 15.411 34.355 34.355s-15.36 34.355-34.355 34.355zM34.355 551.014h680.499c18.944 0 34.355 15.514 34.355 34.406 0 18.995-15.411 34.406-34.355 34.406h-680.499c-18.995 0-34.304-15.411-34.304-34.406 0-18.944 15.309-34.406 34.304-34.406zM34.355 825.907h893.030c18.995 0 34.355 15.411 34.355 34.304 0 18.995-15.36 34.304-34.355 34.304h-893.030c-18.995 0-34.304-15.309-34.304-34.304 0-18.893 15.309-34.304 34.304-34.304zM34.355 276.275h680.499c18.944 0 34.355 15.411 34.355 34.355 0 18.995-15.411 34.355-34.355 34.355h-680.499c-18.995 0-34.304-15.36-34.304-34.355s15.309-34.355 34.304-34.355z" />
<glyph unicode="&#xe911;" glyph-name="close-o" d="M512 960c-282.778 0-512-229.222-512-512s229.222-512 512-512 512 229.222 512 512-229.222 512-512 512zM512-12.8c-254.515 0-460.8 206.285-460.8 460.8s206.285 460.8 460.8 460.8 460.8-206.285 460.8-460.8-206.285-460.8-460.8-460.8zM656.845 592.794c-10.035 9.984-28.058 8.141-40.294-4.045l-104.55-104.55-104.55 104.55c-12.186 12.186-30.259 14.029-40.294 4.045-9.984-9.984-8.090-28.058 4.096-40.243l104.55-104.55-104.55-104.55c-12.186-12.186-14.080-30.259-4.096-40.243 10.035-9.984 28.058-8.141 40.294 4.045l104.55 104.55 104.55-104.55c12.186-12.186 30.259-14.029 40.294-4.045 9.984 9.984 8.141 28.058-4.096 40.243l-104.55 104.55 104.55 104.55c12.186 12.186 14.080 30.259 4.096 40.243z" />
<glyph unicode="&#xe912;" glyph-name="refresh-o" d="M84.582 440.115c0.256-0.051 0.512-0.051 0.768-0.102 15.002 222.464 199.68 398.387 425.984 398.387 37.99 0 74.547-5.837 109.619-15.155l-54.733-26.726c-13.773-6.707-19.558-23.194-12.8-37.069 6.758-13.722 23.296-19.456 37.12-12.749l107.981 52.736c13.824 6.605 19.814 23.091 13.056 36.864l-52.582 108.032c-6.81 13.824-23.347 19.558-37.069 12.8-13.824-6.707-19.507-23.245-12.749-37.069l24.678-50.637c-39.117 10.547-80.026 16.435-122.522 16.435-253.44 0-459.878-198.605-473.651-448.666 0-13.158 10.65-23.757 23.757-23.757 13.158 0 23.757 10.598 23.757 23.757 0 1.075-0.461 1.946-0.614 2.918zM649.574 837.222l-0.512-0.256c0.154 0.154 0.256 0.358 0.358 0.512l0.154-0.256zM916.941 656.64c-0.41 1.024-1.024 1.843-1.485 2.765-0.358 0.563-0.614 1.178-0.973 1.741-0.256 0.461-0.461 0.461-0.717 0.768-4.352 5.939-11.008 10.086-18.893 10.086-13.158 0-23.757-10.65-23.757-23.757 0-3.891 1.126-7.475 2.816-10.701-0.102-0.154-0.205-0.256-0.358-0.461 41.114-65.69 65.178-143.002 65.178-226.15 0-236.083-191.334-427.469-427.469-427.469-129.946 0-245.606 58.522-323.942 150.067l55.296-7.066c15.206-1.894 29.082 8.806 30.976 24.064 1.894 15.155-8.858 29.030-24.064 30.976l-119.245 15.002c-15.206 1.946-29.184-8.55-31.078-23.757l-15.104-119.194c-1.894-15.258 8.755-29.082 23.962-30.976 15.206-1.946 29.030 8.806 30.976 24.064l7.782 61.491c87.142-104.806 217.6-172.134 364.493-172.134 262.298 0 474.931 212.582 474.931 474.931 0.051 90.163-25.651 174.029-69.325 245.709z" />
<glyph unicode="&#xe913;" glyph-name="more-o" d="M512.051 934.4c-282.778 0-512.051-217.754-512.051-486.4s229.274-486.4 512.051-486.4c282.726 0 511.949 217.754 511.949 486.4s-229.222 486.4-511.949 486.4v0zM511.949 9.37c-253.184 0-458.394 196.147-458.394 438.118 0 242.022 205.21 438.17 458.394 438.17s458.394-196.147 458.394-438.17c0-241.971-205.21-438.118-458.394-438.118v0zM245.606 450.355c0-34.048 28.826-61.645 64.461-61.645s64.461 27.597 64.461 61.645c0 33.997-28.826 61.594-64.461 61.594s-64.461-27.597-64.461-61.594v0zM461.466 450.355c0-34.048 28.877-61.645 64.512-61.645s64.461 27.597 64.461 61.645c0 33.997-28.826 61.594-64.461 61.594s-64.512-27.597-64.512-61.594v0zM656.384 450.355c0-34.048 28.826-61.645 64.461-61.645s64.461 27.597 64.461 61.645c0 33.997-28.826 61.594-64.461 61.594s-64.461-27.597-64.461-61.594v0z" />
<glyph unicode="&#xe914;" glyph-name="warn-o" d="M513.075 555.264c-21.965 0-47.821-18.739-47.821-40.038l18.33-211.814c4.557-22.63 14.899-28.365 28.314-30.874 14.029 0 28.262 10.496 30.31 32.87l16.435 208.896c0.051 21.248-23.552 40.96-45.568 40.96zM551.782 205.056c0-21.971-17.811-39.782-39.782-39.782s-39.782 17.811-39.782 39.782c0 21.971 17.811 39.782 39.782 39.782s39.782-17.811 39.782-39.782zM1007.718 94.925l-416.87 789.146c-39.578 67.072-117.402 68.096-158.464-1.075l-415.539-786.995c-19.61-33.075-22.221-65.843-7.27-92.262 15.36-26.931 47.667-42.342 88.525-42.342h827.75c40.858 0 73.114 15.411 88.474 42.342 15.002 26.317 12.442 59.187-6.605 91.187zM971.878 27.955c-6.451-11.366-23.194-17.818-46.029-17.818h-827.75c-22.835 0-39.629 6.451-46.080 17.818-5.888 10.24-3.43 26.112 7.424 44.237l415.488 786.995c10.65 18.125 24.218 28.518 36.966 28.518 12.851 0 26.419-10.394 36.454-27.443l416.819-789.094c10.189-17.101 12.646-32.973 6.707-43.213z" />
<glyph unicode="&#xe915;" glyph-name="paas-o" d="M520.602 335.189l47.957-48.708-30.788-32.051c0 0-22.528-24.644 6.793-56.081l241.459-249.617c0 0 23.108-21.572 48.572-3.106l120.866 122.061c0 0 21.333 29.559-7.1 56.695l-239.377 246.545c0 0-26.078 26.487-55.091 3.686l-31.403-33.28-50.381 51.78-51.507-57.924zM487.424 478.822l-258.935 265.66v81.988l-152.849 94.31-75.639-76.425 92.228-152.883 81.169-0.614 255.351-261.325 58.675 49.289zM69.7 31.949c0 0 0 40.687 40.892 40.687 0 0 36.727-1.263 37.922-40.687 0 0-1.195-36.966-39.39-39.424l-34.065-35.123c0 0 49.766-48.094 106.052 0l461.517 514.697c0 0 50.381-35.123 126.191-34.543 0 0 92.638-3.686 165.308 62.054 0 0 141.79 115.678 69.12 296.687l-165.103-166.025-139.844 143.804 165.103 164.352c0 0-105.062 64.102-247.262-28.774 0 0-73.455-53.385-95.573-149.572 0 0-33.178-114.244 41.062-216.951l-518.963-442.982c0 0-32.393-32.87-16.589-81.34l43.622 13.141zM69.7 31.949c0 0 3.174-38.639 39.39-39.424l-34.065-35.123c0 0-44.817 40.004-48.981 61.44l43.657 13.107z" />
<glyph unicode="&#xe916;" glyph-name="daas-o" d="M512 489.813c-274.057 0-496.196 79.36-496.196 177.22v-88.644c0-97.86 222.14-177.186 496.196-177.186 273.988 0 496.196 79.326 496.196 177.186v88.644c0-97.86-222.208-177.22-496.196-177.22zM512 251.665c-273.988 0-496.196 79.326-496.196 177.22v-88.644c0-97.86 222.208-177.186 496.196-177.186 274.057 0 496.196 79.326 496.196 177.186v88.644c0-97.894-222.14-177.22-496.196-177.22zM512 24.61c-273.988 0-496.196 79.326-496.196 177.22v-88.61c0-97.894 222.208-177.22 496.196-177.22 274.057 0 496.196 79.326 496.196 177.22v88.61c0-97.894-222.14-177.22-496.196-177.22zM1008.196 782.78c0-97.876-222.155-177.22-496.196-177.22s-496.196 79.344-496.196 177.22c0 97.876 222.155 177.22 496.196 177.22s496.196-79.344 496.196-177.22z" />
<glyph unicode="&#xe917;" glyph-name="all" d="M93.15 859.375c-51.405 0-93.15-41.711-93.15-93.184 0-51.439 41.745-93.15 93.15-93.15s93.15 41.711 93.15 93.15c0 51.473-41.711 93.184-93.15 93.184zM356.523 704.137h605.389c34.304 0 62.089 27.785 62.089 62.089s-27.785 62.089-62.054 62.089h-605.423c-34.304 0-62.089-27.785-62.089-62.089s27.785-62.089 62.089-62.089zM93.15 533.367c-51.405 0-93.15-41.711-93.15-93.15s41.745-93.15 93.15-93.15 93.15 41.711 93.15 93.15-41.711 93.15-93.15 93.15zM961.946 502.34h-605.423c-34.304 0-62.089-27.785-62.089-62.054 0-34.304 27.785-62.089 62.089-62.089h605.389c34.27 0 62.054 27.785 62.054 62.089 0.034 34.236-27.75 62.054-62.020 62.054zM93.15 222.925c-51.405 0-93.15-41.677-93.15-93.116 0-51.473 41.745-93.15 93.15-93.15s93.15 41.711 93.15 93.15c0 51.439-41.711 93.116-93.15 93.116zM961.946 191.898h-605.423c-34.304 0-62.089-27.785-62.089-62.089s27.785-62.089 62.089-62.089h605.389c34.27 0 62.054 27.785 62.054 62.089s-27.75 62.089-62.020 62.089z" />
<glyph unicode="&#xe918;" glyph-name="iaas-o" d="M745.335 39.492v0h-491.861c-128.478 0-236.544 96.017-251.665 223.232-13.517 113.698 50.79 220.399 153.429 263.373 0.922 178.859 139.537 322.799 316.553 330.103 165.171 6.724 307.098-109.943 337.818-266.82 129.195-30.447 220.911-149.197 214.016-285.321-7.475-148.343-129.741-264.567-278.289-264.567zM744.789 132.608h0.512c98.918 0 180.361 77.38 185.378 176.196 5.018 99.021-68.335 184.252-167.014 194.082l-38.639 3.823-3.174 38.741c-10.172 125.577-119.467 223.13-246.204 217.771-127.761-5.291-227.635-109.602-227.396-237.466 0.375-6.963 1.229-15.906 2.662-24.781l6.895-42.667-41.984-10.069c-78.916-18.91-131.209-93.935-121.617-174.524 9.626-80.452 77.926-141.141 158.959-141.141h491.622z" />
<glyph unicode="&#xe919;" glyph-name="personal-settings-o" d="M495.514 485.222c127.181 0.41 230.4 106.803 230.4 237.414 0 130.816-103.782 237.363-231.117 237.363-127.488 0-231.219-106.65-231.219-237.568 0-88.166 47.616-164.352 117.299-205.261-204.698-51.712-329.882-248.525-313.498-524.646 0.614-9.677 7.629-17.613 17.101-17.613s27.341 7.885 27.802 17.51c15.77 322.867 136.55 466.125 382.515 492.442 0.307 0.051 0.461 0.307 0.717 0.358zM313.958 722.534c0 102.298 81.101 185.498 180.736 185.498s180.634-83.2 180.634-185.498c0-102.349-80.998-185.498-180.634-185.498s-180.736 83.149-180.736 185.498zM916.275 165.478l-1.792 1.792c-5.325 7.168-5.325 17.869 1.792 24.986l35.738 32.205c5.325 5.325 7.168 10.701 5.325 17.869-5.325 23.245-14.285 44.698-26.778 64.358-3.635 5.376-8.96 9.011-16.077 9.011l-46.541-1.843h-1.792c-8.858 1.843-16.026 9.011-16.026 19.712l1.69 46.49c0 7.168-3.533 12.493-8.858 16.026-19.763 12.544-41.216 21.453-64.41 26.829-7.168 1.741-14.285 0-17.92-5.376l-32.154-35.738-1.792-1.741c-7.168-5.376-17.92-5.376-25.037 1.741l-32.154 35.738c-5.376 5.376-10.752 7.168-17.92 5.376-16.077-5.376-37.53-12.544-64.358-26.829-7.168-1.741-10.701-8.909-10.701-16.026l1.741-46.49v-1.792c-1.741-8.909-8.909-16.026-19.661-16.026l-46.541 1.741c-7.168 0-12.442-3.584-16.026-8.96-12.595-19.661-21.453-41.114-26.88-64.358-1.69-7.168 0-14.285 5.427-17.869l35.738-32.205 1.69-1.792c5.427-7.168 5.427-17.869-1.69-24.986l-35.738-32.256c-5.427-5.325-7.168-10.65-5.427-17.818 5.427-23.296 14.285-44.749 26.88-64.358 3.533-5.376 8.858-9.011 16.026-9.011l46.541 1.843h1.792c8.96-1.843 16.077-9.011 16.077-19.712l-1.792-46.49c0-7.168 3.533-14.285 10.701-16.077 19.712-12.493 41.165-21.453 64.358-26.778 7.168-1.792 14.285 0 17.92 5.325l32.154 35.738 1.792 1.792c7.168 5.325 17.92 5.325 25.037-1.792l32.154-35.738c5.376-5.325 10.752-7.168 17.92-5.325 23.296 5.325 44.749 14.285 64.358 26.778 5.325 3.584 9.011 8.96 9.011 16.077l-1.843 46.49v1.741c1.843 8.96 9.011 16.077 19.661 16.077l46.541-1.792c7.168 0 12.442 3.635 16.077 8.96 12.493 19.661 21.453 41.114 26.778 64.358 1.792 7.168 0 14.336-5.325 17.92l-35.686 32.205zM871.987 140.902l3.328-3.379 25.19-21.914c-3.328-11.725-8.397-23.501-13.466-33.587l-33.638 1.587c-28.57 1.741-52.122-18.432-53.811-47.002v-5.069l1.69-33.587c-10.035-5.069-21.862-10.086-33.536-13.466l-21.965 25.19c-18.432 20.173-50.381 21.862-70.554 3.277l-3.328-3.277-21.914-25.19c-11.725 5.069-21.862 8.397-33.587 11.725l1.741 33.587c1.587 28.672-18.586 52.173-47.104 53.76h-5.069l-33.638-1.587c-5.069 10.086-10.086 21.862-13.466 33.587l25.19 21.914c20.173 18.432 21.914 50.33 3.43 70.605l-3.43 3.277-25.19 21.914c3.328 11.725 8.397 23.501 13.466 33.587l33.638-1.69c28.57-1.638 52.173 18.534 53.76 47.104v5.018l-1.587 33.638c13.414 6.758 25.088 11.776 33.485 15.155l21.965-25.242c18.381-20.224 50.381-21.862 70.554-3.328l3.277 3.328 21.965 25.242c11.725-3.328 23.501-8.397 33.485-13.517l-1.587-33.587c-1.69-28.57 18.534-52.122 47.053-53.811h5.069l33.638 1.69c5.069-10.086 10.086-21.914 13.466-33.587l-25.19-21.914c-20.224-18.381-21.862-50.33-3.328-70.451z" />
<glyph unicode="&#xe91a;" glyph-name="safety-o" d="M914.074 812.8c-249.293 0-380.262 134.451-380.262 134.451-6.195 6.349-18.688 12.749-24.934 12.749s-18.688-6.4-18.688-6.4-130.918-134.4-380.314-134.4c-18.637 0-31.13-12.8-31.13-31.949v-492.851c0-211.2 162.099-268.8 311.706-320 31.13-12.8 68.557-25.651 105.933-38.4h31.181c31.13 12.749 68.557 25.6 105.933 38.4 143.36 51.2 311.706 108.8 311.706 320v486.4c0.051 19.2-12.442 32-31.13 32zM901.325 297.421c0-178.842-129.024-218.624-277.453-271.616-32.256-13.261-82.586-28.211-114.842-41.421-32.307 19.917-71.014 26.522-109.722 39.731-148.429 53.043-277.453 99.379-277.453 271.616v470.374c206.49 6.605 335.514 92.723 380.672 139.11 51.661-46.336 192.307-130.867 398.746-137.472v-470.323zM427.827 550.4c0-34.97 20.992-64.717 50.739-77.056l-19.61-210.944h99.738l-19.558 210.944c29.696 12.339 50.688 42.086 50.688 77.056 0 45.926-36.301 83.2-80.998 83.2-44.749 0-80.998-37.274-80.998-83.2z" />
<glyph unicode="&#xe91b;" glyph-name="like-o" d="M1023.232 604.621c-5.632 52.89-43.674 95.59-90.112 101.325-38.554 4.71-73.318-15.002-93.85-47.411-20.634 32.41-55.45 52.122-93.952 47.411-46.336-5.683-84.48-48.384-90.163-101.325-3.072-29.696 3.482-57.498 16.691-79.821 46.336-86.016 151.45-173.875 167.424-193.075 15.872 19.2 120.934 107.11 167.322 193.075 13.158 22.323 19.763 50.125 16.64 79.821zM955.597 528.179c-32.717-56.32-106.957-120.422-118.118-133.018-11.315 12.595-85.504 76.698-118.221 133.018-9.318 14.694-23.245 43.981-21.043 63.488 3.942 34.714 30.925 62.72 63.642 66.406 27.187 3.123 60.979-20.992 75.622-42.086 14.49 21.094 52.992 44.288 80.179 41.216 32.768-3.686 54.938-36.403 58.931-71.117 2.253-19.405-11.674-43.162-20.992-57.907zM819.2 199.322c0-20.326-13.158-36.915-29.389-36.915h-709.222c-16.23 0-29.389 16.538-29.389 36.915v591.77c0 20.326 13.158 36.915 29.389 36.915h709.274c16.179 0 29.338-16.538 29.338-36.915v-70.861h51.2v70.861c0 48.589-36.147 88.115-80.589 88.115h-709.222c-44.442 0-80.589-39.526-80.589-88.115v-591.821c0-48.589 36.147-88.115 80.589-88.115h709.274c44.442 0 80.589 39.475 80.589 88.115v110.234h-51.2v-110.182zM560.742 67.994h-251.085c-15.514 0-28.058-11.469-28.058-25.6s12.544-25.6 28.058-25.6h251.085c15.514 0 28.058 11.469 28.058 25.6s-12.544 25.6-28.058 25.6z" />
<glyph unicode="&#xe91c;" glyph-name="key-o" d="M704.051 960c-176.742 0-319.949-143.258-319.949-320 0.205-39.782 7.936-79.206 22.784-116.122l-388.71-388.813c-11.213-11.162-18.176-21.862-18.176-39.066v-96c0-34.253 29.696-64 64-64h96c17.101 0 27.955 6.912 39.219 18.074l45.875 45.926h75.008c35.277 0 64 28.672 64 64v64h64c35.277 0 64 28.672 64 64v75.008l75.725 75.878c36.147-14.234 75.008-22.886 116.224-22.886 176.64 0 319.949 143.258 319.949 320s-143.309 320-319.949 320zM709.888 382.054c-48.794 0-94.106 14.182-133.274 37.325l-11.366-11.315-99.84-99.891c-12.39-12.39-19.302-29.184-19.302-46.643v-77.261h-65.946c-36.403 0-65.894-29.542-65.894-65.997v-65.894h-77.261c-17.51-0.051-34.253-7.014-46.592-19.354l-46.746-46.694-93.184 0.102-0.102 93.952 432.998 432.282c-23.091 39.168-37.274 84.326-37.274 133.171 0 145.664 118.118 263.834 263.782 263.834 145.613 0 263.68-118.221 263.68-263.834 0.051-145.664-118.067-263.782-263.68-263.782zM760.422 826.112c-8.192 5.837-18.739 7.424-28.262 4.045-44.39-15.667-74.854-46.029-90.419-90.522-3.379-9.523-1.894-20.070 4.045-28.262 35.891-49.971 79.718-93.747 129.587-129.638 8.192-5.888 18.688-7.424 28.211-4.096 44.493 15.565 75.008 45.978 90.624 90.47 3.379 9.574 1.894 20.122-4.096 28.262-35.891 49.971-79.718 93.85-129.69 129.741zM794.112 607.693c-46.848 33.69-88.115 74.701-122.214 121.344 12.39 35.277 35.533 58.47 69.837 71.066 46.95-33.741 88.166-74.957 122.061-121.907-12.493-35.072-35.584-58.112-69.683-70.502z" />
<glyph unicode="&#xe91d;" glyph-name="withdraw-o" d="M1012.275 481.792l-149.299 153.6c-15.77 15.718-41.165 15.718-56.883 0s-15.718-41.165 0-56.883l87.757-90.266h-513.894c-22.17 0-40.243-18.125-40.243-40.243 0-22.17 18.125-40.243 40.243-40.243h513.894l-87.757-90.317c-15.718-15.718-15.718-41.165 0-56.832 15.77-15.77 41.165-15.77 56.883 0l149.299 153.549c8.141 8.192 12.39 19.507 11.622 31.027 0.154 1.843 0.154 3.738 0 5.53 0.819 11.571-3.43 22.938-11.622 31.078zM813.67 155.136c-8.090 0-14.899-4.198-19.251-10.291-79.053-81.101-189.184-131.584-311.347-131.584-240.077 0-434.739 194.662-434.739 434.739s194.662 434.739 434.739 434.739c111.667 0 213.197-42.445 290.202-111.667h1.075c3.533-2.202 7.629-3.789 12.134-3.789 13.363 0 24.166 10.803 24.166 24.166 0 4.096-1.229 7.731-3.021 11.162-0.307 1.741-1.024 3.482-2.97 5.222-85.35 76.493-197.939 123.238-321.587 123.238-266.803 0-483.072-216.32-483.072-483.072s216.269-483.072 483.072-483.072c137.216 0 261.018 57.293 348.877 149.248 0.358 0.41-0.102 1.024-0.051 1.434 3.482 4.147 5.888 9.472 5.888 15.36 0 13.363-10.803 24.166-24.115 24.166z" />
<glyph unicode="&#xe91e;" glyph-name="help-o" d="M725.76 960h-543.027c-71.885 0-130.253-57.344-130.253-128v-768c0-70.656 58.368-128 130.253-128h651.366c71.936 0 137.421 57.344 137.421 128v646.605l-245.76 249.395zM703.437 905.062l211.251-201.062h-179.968c-8.294 0-16.23 3.174-22.17 8.755-5.837 5.581-9.165 13.21-9.165 21.146v171.162zM915.507 61.030c0-36.506-30.106-66.099-67.226-66.099h-672.512c-37.171 0-67.226 29.594-67.226 66.099v783.36c0 36.454 30.106 66.048 67.226 66.048h470.682v-198.195c0-36.506 30.208-66.048 67.277-66.048h201.728v-585.165zM233.882 638.464h313.958c14.080 0 25.549 11.52 25.549 25.651s-11.418 25.549-25.549 25.549h-313.958c-14.080 0-25.549-11.418-25.549-25.549s11.469-25.651 25.549-25.651zM208.333 476.365c0-14.131 11.469-25.651 25.549-25.651h520.499c14.080 0 25.549 11.52 25.549 25.651s-11.469 25.549-25.549 25.549h-520.499c-14.080 0-25.549-11.418-25.549-25.549zM245.965 281.702c-14.080 0-25.549-11.418-25.549-25.549s11.469-25.651 25.549-25.651h520.499c14.080 0 25.549 11.52 25.549 25.651s-11.469 25.549-25.549 25.549h-520.499z" />
<glyph unicode="&#xe91f;" glyph-name="customer-service-o" d="M933.837 486.349c-1.229 0.256-3.738 0.717-3.738 0.717l-15.923 0.461c-7.526 203.213-182.835 365.875-398.541 365.875-215.398 0-390.451-162.048-398.592-364.749l-11.776-0.102c-58.726-4.506-105.267-56.576-105.267-120.218v-87.808c0-66.509 50.893-120.576 113.306-120.576h60.723c17.408 0 31.59 14.182 31.59 31.642v265.728c0 17.51-14.182 31.642-31.59 31.642h-1.536l-13.619-0.102c8.448 181.606 164.659 326.4 356.71 326.4 192.154 0 348.416-144.896 356.71-326.605l-9.933 0.307h-12.186c-17.51 0-31.642-14.131-31.642-31.642v-265.626c0-8.038 3.123-15.309 8.038-20.838-47.309-54.733-116.838-85.965-202.445-85.965-11.674 0-21.094-9.421-21.094-21.094s9.472-21.094 21.094-21.094c106.24 0 192.614 43.418 247.552 117.35h39.117c62.464 0 113.254 54.067 113.254 120.525v87.859c0 58.010-38.81 106.496-90.214 117.914zM142.336 355.584v-132.352h-29.030c-27.546 0-50.022 25.651-50.022 57.293v87.808c0 5.018 0.717 9.728 1.741 14.336 0.256 1.075 0.563 2.15 0.922 3.226 1.126 3.994 2.56 7.834 4.403 11.418 0.205 0.358 0.358 0.819 0.563 1.126 4.659 8.55 11.264 15.565 19.046 20.275 3.277 1.997 6.81 3.584 10.394 4.762 0.41 0.102 0.717 0.307 1.075 0.358 3.789 1.126 7.731 1.843 11.827 1.843h29.082v-70.093zM960.87 280.525v0c-0.051-31.59-22.477-57.293-50.074-57.293h-29.030v202.445h29.030c13.722 0 26.214-6.4 35.226-16.691 9.677-11.315 14.899-25.754 14.797-40.653v-87.808z" />
<glyph unicode="&#xe920;" glyph-name="feedback-o" d="M609.843 561.766c8.96-5.53 19.354-7.066 29.338-5.171 9.677 1.843 19.046 7.066 25.242 15.258l256.922 346.726c12.595 16.538 8.499 38.451-9.318 49.306-17.715 10.854-41.984 6.298-54.528-10.291l-256.973-346.624c-12.544-16.486-8.448-38.4 9.318-49.203zM233.523 624.64h313.958c14.080 0 25.549 11.52 25.549 25.651s-11.469 25.549-25.6 25.549h-313.907c-14.080 0-25.549-11.418-25.549-25.549s11.418-25.651 25.549-25.651zM233.523 436.89h520.499c14.080 0 25.549 11.52 25.549 25.651s-11.469 25.549-25.549 25.549h-520.499c-14.080 0-25.549-11.418-25.549-25.549s11.418-25.651 25.549-25.651zM245.555 216.678h520.499c14.080 0 25.549 11.52 25.549 25.651s-11.469 25.549-25.549 25.549h-520.499c-14.080 0-25.549-11.418-25.549-25.549s11.469-25.651 25.549-25.651zM971.11 694.221v2.56h-0.512c-3.072 12.646-13.875 22.272-27.494 22.272-13.773 0-24.678-9.83-27.546-22.682h-0.461v-2.15c-0.205-1.331-0.819-2.56-0.819-3.942s0.614-2.611 0.819-3.942v-639.027c0-36.506-30.106-66.099-67.226-66.099h-672.512c-37.171 0-67.226 29.594-67.226 66.099v783.36c0 36.454 30.106 66.048 67.226 66.048h470.682l-51.149 0.666c1.178-0.154 53.453-0.717 54.682-0.717 13.722 0 24.781 11.11 24.781 24.781 0 13.414-10.701 24.166-23.962 24.627v0.102h-468.019c-71.885 0-130.253-57.344-130.253-128v-768c0-70.656 58.368-128 130.253-128h651.366c71.936 0 137.421 57.344 137.421 128v636.109c0.205 1.331 0.819 2.56 0.819 3.942s-0.666 2.611-0.87 3.994z" />
<glyph unicode="&#xe921;" glyph-name="phone-o" d="M806.144-27.494c-61.901 0-126.464 18.944-161.229 29.133-67.482 20.070-227.226 118.221-367.565 242.125-160.563 141.773-234.701 317.747-259.174 386.867-31.642 89.651-14.95 130.714-2.714 160.666l3.021 7.322c16.128 41.523 46.899 70.656 109.466 104.038 26.266 13.978 49.715 20.838 71.731 20.838 28.262 0 46.336-11.162 57.242-17.818 23.859-12.237 100.454-72.55 129.024-135.629 37.837-84.326-1.126-127.642-13.978-138.906-6.093-5.274-11.622-10.445-16.742-15.411-11.674-11.059-22.272-20.838-33.741-28.314-1.382-1.28-3.43-5.222-1.997-23.654 6.451-17.818 83.61-100.506 121.19-135.834 151.91-144.179 189.235-155.341 193.075-156.16 22.886-4.864 34.355 0.973 38.144 4.762l4.915 5.376c9.011 10.291 25.856 29.491 45.005 44.339 20.019 15.36 48.998 18.586 69.837 18.586 10.445 0 46.080-1.075 66.304-14.387 2.611-1.638 7.987-4.352 15.002-7.936 30.464-15.718 86.989-44.851 120.166-81.92 48.845-54.528 31.13-135.68 5.632-159.898-2.56-2.458-4.352-4.659-6.656-7.27-9.114-10.496-21.453-24.781-69.018-65.024-28.262-23.808-67.533-35.891-116.941-35.891v0zM193.536 868.454c-6.81 0-18.944-2.15-38.4-12.595-61.44-32.87-73.728-53.658-81.050-72.141l-3.277-8.448c-10.24-25.19-20.89-51.098 3.686-121.037 23.296-65.69 94.003-233.421 246.323-367.923 141.67-125.082 295.578-216.678 347.853-232.090 31.795-9.37 90.982-26.778 143.36-26.778 32.461 0 56.73 6.758 72.346 19.917 44.442 37.427 55.552 50.33 62.925 58.778 3.686 4.301 6.963 7.936 11.213 12.032 4.147 6.605 14.848 50.074-9.37 77.158-25.498 28.57-67.635 58.624-94.566 72.448-10.291 5.274-17.92 9.37-21.76 11.878-1.126 0.307-12.186 2.816-27.443 2.816-16.589 0-24.986-3.072-26.726-4.147-14.131-10.957-28.621-27.443-36.25-36.25l-7.27-7.834c-25.395-25.856-61.542-34.099-106.342-24.627-15.718 3.277-57.344 12.134-227.482 173.722-9.165 8.55-143.155 134.912-146.842 182.067-2.509 30.259-0.41 61.082 31.386 81.664 8.243 5.427 15.872 13.005 24.576 21.197 5.939 5.53 12.134 11.366 18.995 17.459 9.728 8.499 14.95 32-2.048 70.093-20.685 45.875-91.648 92.979-104.038 99.635-2.918 1.382-6.144 3.328-9.728 5.53-8.090 4.864-12.544 7.475-20.070 7.475v0z" />
<glyph unicode="&#xe922;" glyph-name="qq-o" d="M692.070-64c-64.307 0-123.853 16.589-162.048 45.056-12.595-0.768-23.757-0.768-36.147 0-38.246-28.467-97.792-45.056-162.099-45.056-121.088 0-209.101 54.323-209.101 129.024 0 36.301 21.35 68.966 59.648 92.262-0.614 0.973-1.178 1.792-1.741 2.714-22.426-16.384-47.258-21.043-70.144-13.363-68.25 23.142-71.936 142.336-40.806 242.637 16.64 53.606 47.411 95.693 73.114 123.597-0.358 3.584-0.461 7.219-0.461 10.701 0 28.979 7.526 57.344 22.426 84.224v1.178c0 193.536 155.904 351.027 347.494 351.027 191.539 0 347.392-157.491 347.392-351.027v-0.358c15.258-27.034 22.886-55.603 22.886-85.043 0-3.891-0.102-7.68-0.41-11.52 25.293-27.802 55.706-69.478 72.243-122.726 31.13-100.352 27.443-219.546-40.858-242.688-22.835-7.782-47.565-3.072-69.888 13.21-0.666-0.922-1.178-1.843-1.792-2.662 38.093-23.45 59.392-55.91 59.392-92.16 0.051-74.701-87.91-129.024-209.101-129.024v0zM538.214 32.819c6.144 0 12.083-2.202 16.742-6.195 28.16-24.32 80.64-39.424 137.114-39.424 87.091 0 157.952 34.867 157.952 77.824 0 22.682-20.48 44.288-56.269 59.238-7.424 3.072-12.954 9.472-14.899 17.152-2.048 7.731-0.358 16.026 4.557 22.272 12.083 15.36 22.733 31.744 31.795 48.794 4.045 7.475 11.52 12.595 19.968 13.466 8.704 0.973 16.896-2.458 22.374-9.062 9.984-11.878 26.010-26.419 39.578-21.811 26.163 8.96 35.738 90.778 8.294 179.046-15.36 49.664-45.773 87.859-68.506 111.155-5.734 5.786-8.346 13.978-6.963 22.118 0.922 5.632 1.331 10.957 1.331 16.23 0 22.272-6.502 44.134-19.405 65.075-2.714 4.454-4.096 9.677-3.686 15.002 0.102 1.792 0.205 3.43 0.205 5.274 0.051 165.376-132.864 299.827-296.192 299.827-163.379 0-296.294-134.451-296.294-299.827 0-1.946 0.154-3.942 0.256-5.837 0.358-5.325-0.819-10.598-3.686-15.155-12.544-20.736-18.944-42.394-18.944-64.358 0-5.069 0.41-10.291 1.28-15.718 1.28-7.987-1.382-16.179-7.066-21.914-22.989-23.501-53.76-61.952-69.274-111.923-27.392-88.269-17.766-170.086 8.397-178.944 13.824-4.864 29.696 9.882 39.731 21.965 5.427 6.502 13.773 9.933 22.374 9.011 8.448-0.87 16.026-5.939 19.968-13.466 9.011-17.050 19.661-33.434 31.795-48.845 4.915-6.349 6.554-14.592 4.506-22.323-1.997-7.782-7.475-14.080-14.899-17.152-35.891-14.899-56.525-36.557-56.525-59.341 0.051-42.906 70.912-77.773 157.952-77.773 56.525 0 109.056 15.104 137.216 39.424 5.12 4.454 11.622 6.758 18.688 6.144 17.203-1.331 30.976-1.331 48.64 0 0.666 0.051 1.28 0.051 1.894 0.051v0z" />
<glyph unicode="&#xe923;" glyph-name="import-o" d="M997.786 431.565c-14.387 0-26.112-11.725-26.112-26.163 0-0.512 0.307-0.973 0.307-1.536v-256.102c0-32.307-26.214-58.573-58.522-58.573h-802.97c-32.307 0-58.624 26.266-58.624 58.573v255.898c0.051 0.666 0.41 1.126 0.41 1.741 0 14.438-11.725 26.163-26.163 26.163-14.387 0-26.112-11.725-26.112-26.163v-257.638c0-60.877 49.562-110.49 110.49-110.49h803.021c60.877 0 110.49 49.613 110.49 110.49v257.638c0 14.438-11.725 26.163-26.214 26.163zM441.446 787.814h149.555c20.275 0 36.71 15.77 36.71 35.43 0 19.558-16.384 35.482-36.71 35.482h-149.555c-20.275 0-36.659-15.974-36.659-35.482 0-19.712 16.435-35.43 36.659-35.43zM486.093 245.35c14.234-13.824 37.581-13.824 51.866 0l241.613 233.574c14.285 13.875 9.421 25.139-10.752 25.139h-104.448c-20.173 0-36.659 15.923-36.659 35.43v141.875c0 19.61-16.435 35.482-36.71 35.482h-149.555c-20.173 0-36.659-15.923-36.659-35.482v-141.875c0-19.558-16.435-35.43-36.71-35.43h-112.845c-20.224 0-25.037-11.315-10.752-25.139l241.613-233.574z" />
<glyph unicode="&#xe924;" glyph-name="export-o" d="M997.786 431.565c-14.387 0-26.112-11.725-26.112-26.163 0-0.512 0.307-0.973 0.307-1.536v-256.102c0-32.307-26.214-58.573-58.522-58.573h-802.97c-32.307 0-58.624 26.266-58.624 58.573v255.898c0.051 0.666 0.41 1.126 0.41 1.741 0 14.438-11.725 26.163-26.163 26.163-14.387 0-26.112-11.725-26.112-26.163v-257.638c0-60.877 49.562-110.49 110.49-110.49h803.021c60.877 0 110.49 49.613 110.49 110.49v257.638c0 14.438-11.725 26.163-26.214 26.163zM582.605 305.971h-149.555c-20.275 0-36.71-15.77-36.71-35.43 0-19.558 16.384-35.482 36.71-35.482h149.555c20.275 0 36.659 15.974 36.659 35.482 0 19.661-16.435 35.43-36.659 35.43zM537.958 848.384c-14.234 13.824-37.581 13.824-51.866 0l-241.613-233.523c-14.285-13.875-9.421-25.139 10.752-25.139h104.448c20.173 0 36.659-15.923 36.659-35.43v-141.875c0-19.61 16.435-35.482 36.71-35.482h149.555c20.173 0 36.659 15.923 36.659 35.482v141.824c0 19.558 16.435 35.43 36.71 35.43h112.845c20.224 0 25.037 11.315 10.752 25.139l-241.613 233.574z" />
<glyph unicode="&#xe925;" glyph-name="more-1-o" d="M617.062 854.938c0-58.024-47.038-105.062-105.062-105.062s-105.062 47.038-105.062 105.062c0 58.024 47.038 105.062 105.062 105.062s105.062-47.038 105.062-105.062zM617.062 451.277c0-58.024-47.038-105.062-105.062-105.062s-105.062 47.038-105.062 105.062c0 58.024 47.038 105.062 105.062 105.062s105.062-47.038 105.062-105.062zM617.062 41.062c0-58.024-47.038-105.062-105.062-105.062s-105.062 47.038-105.062 105.062c0 58.024 47.038 105.062 105.062 105.062s105.062-47.038 105.062-105.062z" />
<glyph unicode="&#xe926;" glyph-name="docker-o" d="M692.070 568.371l-0.307-0.154 0.051 0.051h-116.070v-116.378h116.326zM549.171 568.371l-0.102-0.154v0.051h-116.736v-116.378h116.838zM549.171 714.342l-0.102 0.154h-116.736v-116.326h116.838zM549.171 863.693h-116.838v-116.326h116.838zM259.789 568.371l-0.512-0.154 0.051 0.051h-115.968v-116.378h116.429zM405.658 568.371l-0.768-0.154 0.102 0.051h-115.405v-116.378h116.070zM116.736 568.371l-1.485-0.154-0.051 0.051h-115.2v-116.378h116.736zM405.658 714.342l-0.768 0.154h-115.302v-116.326h116.070zM259.482 714.342l-0.717 0.154h-115.2v-116.326h115.917zM218.368 291.686c-30.72 0-54.63-21.965-54.63-49.869 0-26.112 26.010-49.664 54.528-49.664v-0.154c33.024 3.942 55.142 26.010 55.142 49.971 0 28.365-23.654 49.715-55.040 49.715zM991.744 472.422c-29.85 18.227-71.782 24.934-109.773 20.070-10.547 32.973-33.126 63.181-66.099 88.474l-31.334 24.883-24.781-30.362c-25.446-28.826-34.099-76.237-31.283-111.053 1.894-17.664 6.144-34.15 12.544-48.947-3.021-1.382-5.325-2.56-6.195-3.226-18.432-5.888-37.581-8.909-60.058-8.909-0.102 0-0.154 0-0.256 0h-667.034l-5.837-36.71c-5.427-52.685 3.123-106.291 25.6-156.877l10.24-20.634c61.030-101.12 169.677-156.826 305.971-156.826 242.637 0 424.448 109.005 513.741 307.405 71.475 1.024 122.726 29.030 147.763 79.821l19.046 32.717-32.256 20.173zM853.197 388.045l-27.648 1.024-6.554-15.616c-78.694-188.774-247.654-292.762-475.597-292.762-116.019 0-208.384 45.363-261.069 127.795l-11.93 22.835c-17.306 39.219-24.576 82.227-21.35 123.597h628.48c24.525 0 48.691 3.738 75.776 12.8 4.659 2.406 9.933 4.71 15.36 7.168 5.837 2.611 11.776 5.222 17.101 7.885l25.19 12.851-16.538 22.886c-9.421 13.005-15.77 31.13-17.818 50.381-1.946 24.269 4.301 52.122 15.411 69.12 27.29-22.528 43.315-47.923 47.462-75.418l-1.331-26.163 32.512 4.352c29.389 7.834 63.949 5.786 87.859-5.376-18.995-31.386-54.374-47.36-105.318-47.36z" />
<glyph unicode="&#xe927;" glyph-name="selected-o" d="M512 960c-282.726 0-512-229.274-512-512s229.274-512 512-512 512 229.274 512 512-229.274 512-512 512zM832.154 127.846c-41.626-41.574-90.061-74.138-143.974-97.024-55.757-23.603-115.098-35.533-176.179-35.533s-120.474 11.93-176.179 35.533c-53.914 22.784-102.349 55.45-143.974 97.024-41.574 41.626-74.24 90.061-97.024 143.974-23.552 55.706-35.533 115.046-35.533 176.179 0 61.082 11.981 120.474 35.533 176.179 22.784 53.914 55.45 102.298 97.024 143.974 41.626 41.523 90.061 74.189 143.974 96.973 55.706 23.603 115.098 35.584 176.179 35.584s120.474-11.93 176.179-35.533c53.914-22.784 102.298-55.45 143.974-97.024 41.574-41.626 74.138-90.061 97.024-143.974 23.603-55.757 35.533-115.098 35.533-176.179 0-61.133-11.93-120.474-35.533-176.179-22.886-53.914-55.501-102.349-97.024-143.974zM735.488 618.854l-296.090-296.141-150.938 150.886c-14.234 14.234-37.376 14.234-51.712 0s-14.285-37.427 0-51.763l176.794-176.691c7.117-7.168 16.486-10.752 25.856-10.752s18.688 3.584 25.856 10.752l321.946 321.946c14.285 14.285 14.285 37.427 0 51.763-14.234 14.234-37.376 14.234-51.712 0z" />
<glyph unicode="&#xe928;" glyph-name="arrow-return" d="M192-64v1024l640-514.048-640-509.952z" />
<glyph unicode="&#xe929;" glyph-name="cloud-environment-o" d="M511.932 960c-282.658 0-511.932-229.205-511.932-512.034 0-282.658 229.274-511.932 511.932-511.932 282.795 0 512.068 229.274 512.068 511.932 0 282.829-229.274 512.034-512.068 512.034zM511.932-29.833c-263.851 0-477.798 214.016-477.798 477.833 0 263.953 213.948 477.867 477.798 477.867 263.987 0 477.935-213.914 477.935-477.867 0-263.817-213.948-477.833-477.935-477.833zM626.005 518.485v0c-1.741 1.809-4.164 2.833-6.724 2.833h-15.292c-57.754 0-101.171-3.55-133.769-10.65-19.217-4.198-34.065-10.547-45.5-19.388-12.425-9.626-20.855-22.187-25.873-38.434-3.311-10.786-4.881-30.242 1.673-49.527 2.219-6.622 5.632-12.971 10.103-18.773-17.476-25.532-26.385-37.683-26.385-65.263 0-4.471 3.959-8.055 8.875-8.055 4.881 0 8.875 3.584 8.875 8.055 8.533 36.318 29.798 65.126 48.879 82.466 13.653 12.459 31.266 28.297 46.831 35.703 14.336 6.827 27.955 10.581 38.298 10.581 4.915 0 8.909 3.584 8.909 8.055s-3.994 8.055-8.909 8.055c-13.414 0-29.457-4.267-46.455-12.39-17.203-8.192-34.133-19.695-49.084-33.28-6.69-6.042-5.12-14.609-10.923-21.47-1.741 2.935-3.174 5.973-4.198 9.079-5.734 17.067-3.652 33.451-1.468 40.516 15.735 51.337 62.464 50.62 178.859 50.62h3.857c-13.961-65.434-47.206-100.898-83.319-119.057-12.834-6.451-26.999-7.817-41.95-7.817l9.933-2.014c-17.067 0-35.669 4.676-42.564 7.27-2.662 0.99-0.785-0.137-3.447 1.263-1.331 0.717-2.901 1.126-4.506 1.126-3.106 0-6.042-1.536-7.646-3.925-2.458-3.789-1.092-8.738 3.14-11.059 3.345-1.809 6.758-3.345 10.274-4.676 7.612-2.867 19.831-6.451 34.918-7.68 3.277-0.273 6.588-0.341 10.001-0.341 17.92 0 34.884 3.925 50.415 11.674 19.593 9.933 36.523 25.907 50.381 47.65 16.077 25.225 28.092 61.645 35.874 102.229 0.478 2.355-0.273 4.745-1.98 6.588l-0.102 0.034zM723.456 513.161c-9.284 88.542-90.351 157.969-190.123 157.969-77.21 0-143.292-41.677-173.807-101.478-9.318 2.833-19.081 4.335-28.877 4.471-53.009 0-96.017-39.083-96.017-87.313 0-9.557 2.15-18.637 5.257-27.238-41.233-21.845-69.222-61.986-69.222-108.476 0-69.666 62.054-126.123 138.684-126.123v-0.068l384 0.068c88.371 0 160.017 65.126 160.017 145.545-0.034 70.895-55.979 129.809-129.911 142.643zM698.982 257.161v-0.068h-395.913c-54.682 0.137-98.884 41.267-98.987 90.999 0 32.017 18.534 60.86 49.596 77.312 30.14 15.735 32.188 18.876 19.524 47.138-1.946 4.983-3.004 10.172-3.14 15.428 0 27.614 24.678 50.005 54.989 50.005 0 0 14.404 0.922 29.73-4.574 25.225-9.182 27.989-0.41 39.902 23.177 25.225 49.459 79.906 81.476 139.264 81.476 79.155 0 144.657-54.477 152.337-126.669 2.697-28.672 2.697-28.672 35.465-35.465 56.934-9.967 98.099-55.159 98.167-107.827 0-60.655-54.272-110.933-120.934-110.933z" />
<glyph unicode="&#xe92a;" glyph-name="host-o" d="M511.932 960c-282.658 0-511.932-229.239-511.932-512.034 0-282.692 229.274-511.966 511.932-511.966 282.795 0 512.068 229.274 512.068 511.966 0 282.795-229.274 512.034-512.068 512.034zM511.932-29.867c-263.851 0-477.798 214.050-477.798 477.867 0 263.919 213.948 477.867 477.798 477.867 263.987 0 477.935-213.948 477.935-477.867 0-263.817-213.948-477.867-477.935-477.867zM725.129 650.274h-52.19c-8.602 0-15.189-6.622-15.189-15.189 0-8.67 6.588-15.223 15.189-15.223h52.19c8.636 0 15.223 6.554 15.223 15.223 0 8.533-6.588 15.189-15.223 15.189zM755.063 712.636h-326.827c-18.739 0-34.475-15.77-34.475-34.543v-100.318c0-8.636 6.588-15.189 15.223-15.189h350.106v-58.505h-156.535c-7.748 0-13.551-5.427-14.746-12.766-23.381 33.621-62.157 55.842-106.155 55.842-71.339 0-129.536-58.231-129.536-129.604 0-7.646 0.751-15.565 1.98-23.142-4.813 0.375-9.182 0.785-13.961 0.785-58.197 0-105.643-45.022-105.643-103.253 0-58.607 47.445-108.578 105.643-108.578h315.665c68.983 0 125.167 56.218 125.167 125.269 0 68.983-56.183 124.826-125.167 124.826-15.531 0-30.686-2.765-45.022-8.363-0.922 17.715-5.666 34.372-13.073 49.493 1.536-0.512 3.106-0.922 4.847-0.922h156.535v-56.764c0-8.67 6.622-15.292 15.189-15.292 8.636 0 15.223 6.622 15.223 15.292v261.188c0 18.773-15.701 34.543-34.441 34.543zM601.19 394.411c14.95 8.875 31.846 13.517 49.118 13.517 53.692 0 97.451-43.383 97.451-97.143s-43.759-93.252-97.451-93.252h-303.957c-43.349 0-78.643 31.027-78.643 74.82 0 43.349 35.294 78.677 78.643 78.677 8.465 0 17.306-1.502 25.737-4.198 4.233-1.502 8.806-0.375 11.878 2.697s4.233 7.646 2.697 11.913c-3.823 11.127-5.769 22.63-5.769 34.167 0 56.081 45.67 101.751 101.717 101.751 55.979 0 101.683-45.705 101.274-101.41 0-3.823 0-7.339-0.375-9.967-0.41-4.642 1.536-8.875 5.359-11.127 3.857-2.731 8.465-2.731 12.322-0.444zM759.091 592.964h-334.916v85.129c0 2.048 2.048 4.062 4.062 4.062h326.827c2.014 0 4.028-2.048 4.028-4.062v-85.129z" />
<glyph unicode="&#xe92b;" glyph-name="cloud-storage-o" d="M511.932 960c-282.658 0-511.932-229.205-511.932-512.034 0-282.658 229.274-511.932 511.932-511.932 282.795 0 512.068 229.274 512.068 511.932 0 282.829-229.274 512.034-512.068 512.034zM511.932-29.833c-263.851 0-477.798 214.016-477.798 477.833 0 263.953 213.948 477.867 477.798 477.867 263.987 0 477.935-213.914 477.935-477.867 0-263.817-213.948-477.833-477.935-477.833zM734.447 534.972c-9.318 82.91-90.351 147.968-190.191 147.968-77.21 0-143.258-39.049-173.773-95.061-9.284 2.662-19.046 4.062-28.877 4.198-53.009 0-96.017-36.625-96.017-81.783 0-8.977 2.15-17.476 5.222-25.532-41.233-20.48-69.222-58.061-69.222-101.649 0-65.263 62.089-118.135 138.684-118.135v-0.068h116.019v104.721h0.546v54.374l86.255 77.21 88.678-79.394c0-0.137-0.102-0.273-0.102-0.444v-126.327h-0.137v-30.174l92.774 0.068c88.405 0 160.017 60.996 160.017 136.294-0.068 66.526-55.945 121.719-129.877 133.734zM709.871 295.151v-0.068h-65.434v97.485l20.787-18.637c6.554-5.837 17.135-5.837 23.689 0 6.485 5.837 6.485 15.326 0 21.197l-153.873 137.694c-3.311 2.935-7.68 4.403-12.015 4.369-4.335 0.034-8.67-1.434-11.981-4.369l-90.658-81.101c-0.853-0.649-1.604-1.297-2.321-2.082l-60.86-54.511c-6.519-5.837-6.519-15.326 0-21.163 6.519-5.871 17.135-5.871 23.654 0l22.255 19.934v-98.85h-89.122c-54.682 0.102-98.884 38.673-98.987 85.197 0 29.969 18.569 57.071 49.596 72.499 30.174 14.711 32.188 17.647 19.558 44.169-1.98 4.642-3.072 9.523-3.174 14.438 0 25.873 24.678 46.865 54.989 46.865 0 0 14.404 0.853 29.73-4.301 25.225-8.567 27.989-0.375 39.936 21.743 25.225 46.319 79.838 76.254 139.23 76.254 79.189 0 144.657-51.029 152.303-118.682 2.731-26.829 2.731-26.829 35.533-33.212 56.9-9.284 98.031-51.678 98.133-101.035 0.034-56.798-54.238-103.834-120.969-103.834z" />
<glyph unicode="&#xe92c;" glyph-name="vpc-o" d="M511.932 960c-282.658 0-511.932-229.239-511.932-512.068 0-282.658 229.274-511.932 511.932-511.932 282.795 0 512.068 229.274 512.068 511.932 0 282.829-229.274 512.068-512.068 512.068zM511.932-29.867c-263.851 0-477.798 214.016-477.798 477.833 0 263.953 213.948 477.901 477.798 477.901 263.987 0 477.935-213.948 477.935-477.901 0-263.817-213.948-477.833-477.935-477.833zM723.456 513.126c-9.284 88.542-90.351 158.003-190.123 158.003-77.21 0-143.292-41.677-173.807-101.478-9.318 2.833-19.081 4.335-28.877 4.471-53.009 0-96.017-39.117-96.017-87.313 0-9.557 2.15-18.637 5.257-27.273-41.233-21.811-69.222-61.952-69.222-108.476 0-69.666 62.054-126.123 138.684-126.123v-0.068l384 0.068c88.371 0 160.017 65.126 160.017 145.545-0.034 70.929-55.979 129.809-129.911 142.643zM698.982 257.126v-0.068h-395.913c-54.682 0.137-98.884 41.267-98.987 90.999 0 32.017 18.534 60.86 49.596 77.346 30.14 15.77 32.188 18.876 19.524 47.172-1.946 4.983-3.004 10.172-3.14 15.428 0 27.614 24.678 50.005 54.989 50.005 0 0 14.404 0.922 29.73-4.574 25.225-9.182 27.989-0.444 39.902 23.177 25.225 49.459 79.906 81.476 139.264 81.476 79.155 0 144.657-54.511 152.337-126.703 2.697-28.672 2.697-28.672 35.465-35.465 56.934-9.933 98.099-55.159 98.167-107.827 0-60.689-54.272-110.967-120.934-110.967zM668.535 389.939v28.535l-145.271 64.273v23.108c7.851 3.277 13.38 10.513 13.38 18.978 0 11.503-10.103 20.855-22.562 20.855-12.493 0-22.63-9.353-22.63-20.855 0-8.465 5.53-15.701 13.414-18.978v-23.074l-149.743-64.273v-27.614c-8.124-3.243-13.79-10.513-13.79-19.081 0-11.537 10.274-20.855 22.903-20.855s22.903 9.318 22.903 20.855c0 8.67-5.769 16.077-13.995 19.217v15.428l131.686 57.583v-74.445c-6.827-3.584-11.674-10.069-11.674-17.783 0-11.537 10.274-20.855 22.903-20.855 12.663 0 22.903 9.318 22.903 20.855 0 9.216-6.622 16.759-15.701 19.524v73.421l127.147-56.354v-18.807c-7.919-3.277-13.517-10.342-13.517-18.671 0-11.401 10.274-20.617 22.903-20.617s22.869 9.216 22.869 20.617c0 8.567-5.837 15.906-14.131 19.012z" />
<glyph unicode="&#xe92d;" glyph-name="public-net-o" d="M511.932 960c-282.658 0-511.932-229.239-511.932-512.068 0-282.658 229.274-511.932 511.932-511.932 282.795 0 512.068 229.274 512.068 511.932 0 282.829-229.274 512.068-512.068 512.068zM511.932-29.867c-263.851 0-477.798 214.016-477.798 477.833 0 263.953 213.948 477.901 477.798 477.901 263.987 0 477.935-213.948 477.935-477.901 0-263.817-213.948-477.833-477.935-477.833zM589.961 406.562c-7.612 0-14.541-2.56-19.866-6.793l-73.967 38.912c1.673 4.676 2.526 9.626 2.526 14.575 0 4.096-0.614 8.158-1.741 12.083l51.61 23.757c5.495-4.881 12.937-7.851 21.129-7.851 16.794 0 30.481 12.527 30.481 27.989s-13.653 27.989-30.481 27.989-30.447-12.527-30.447-27.989c0-1.161 0.068-2.321 0.239-3.447l-51.644-23.757c-9.25 10.889-23.689 17.852-39.936 17.852-27.989 0-50.722-20.89-50.722-46.66 0-19.9 13.517-36.864 32.563-43.588l-7.407-40.858c-14.268-2.287-25.156-13.756-25.156-27.58 0-15.462 13.653-27.989 30.481-27.989s30.447 12.527 30.447 27.989c0 10.581-6.349 19.763-15.735 24.508l7.441 40.858c14.438 0.478 27.375 6.519 36.284 15.838l73.967-38.878c-0.307-1.673-0.478-3.345-0.478-4.983 0-15.428 13.585-27.989 30.447-27.989 16.794 0 30.447 12.561 30.447 27.989-0.034 15.497-13.687 28.023-30.481 28.023zM723.49 513.195c-9.318 88.61-90.351 158.14-190.191 158.14-77.21 0-143.258-41.711-173.773-101.581-9.284 2.833-19.081 4.335-28.877 4.471-53.043 0-96.017-39.117-96.017-87.381 0-9.591 2.15-18.671 5.222-27.273-41.199-21.879-69.188-62.054-69.188-108.646 0-69.734 62.089-126.225 138.684-126.225v-0.034l384 0.034c88.371 0 160.017 65.161 160.017 145.681-0.034 70.963-55.945 129.98-129.877 142.814zM698.948 256.922v0l-395.878-0.034c-54.682 0.102-98.918 41.301-98.953 91.034 0 32.017 18.5 60.928 49.527 77.414 30.174 15.77 32.222 18.91 19.593 47.206-1.98 4.983-3.038 10.206-3.209 15.462 0 27.614 24.713 50.074 54.989 50.074 0 0 14.438 0.922 29.764-4.608 25.225-9.182 27.989-0.41 39.902 23.211 25.225 49.527 79.906 81.545 139.264 81.545 79.189 0 144.657-54.511 152.303-126.805 2.731-28.672 2.731-28.672 35.533-35.533 56.9-9.933 98.065-55.194 98.099-107.964 0.034-60.723-54.204-111.002-120.934-111.002z" />
<glyph unicode="&#xe92e;" glyph-name="rds-o" d="M511.932 960c-282.658 0-511.932-229.239-511.932-512.068 0-282.658 229.274-511.932 511.932-511.932 282.795 0 512.068 229.274 512.068 511.932 0 282.829-229.274 512.068-512.068 512.068zM511.932-29.867c-263.851 0-477.798 214.016-477.798 477.833 0 263.953 213.948 477.901 477.798 477.901 263.987 0 477.935-213.948 477.935-477.901 0-263.817-213.948-477.833-477.935-477.833zM723.49 513.195c-9.318 88.61-90.351 158.14-190.191 158.14-77.21 0-143.258-41.711-173.773-101.581-9.284 2.833-19.081 4.335-28.877 4.471-53.043 0-96.017-39.117-96.017-87.381 0-9.591 2.15-18.671 5.222-27.273-41.199-21.879-69.188-62.054-69.188-108.646 0-69.734 62.089-126.225 138.684-126.225v-0.034l384 0.034c88.371 0 160.017 65.161 160.017 145.681-0.034 70.963-55.945 129.98-129.877 142.814zM698.948 256.922v0l-395.878-0.034c-54.682 0.102-98.918 41.301-98.953 91.034 0 32.017 18.5 60.928 49.527 77.414 30.174 15.77 32.222 18.91 19.593 47.206-1.98 4.983-3.038 10.206-3.209 15.462 0 27.614 24.713 50.074 54.989 50.074 0 0 14.438 0.922 29.764-4.608 25.225-9.182 27.989-0.41 39.902 23.211 25.225 49.527 79.906 81.545 139.264 81.545 79.189 0 144.657-54.511 152.303-126.805 2.731-28.672 2.731-28.672 35.533-35.533 56.9-9.933 98.065-55.194 98.099-107.964 0.034-60.723-54.204-111.002-120.934-111.002zM552.96 510.805l-28.023-42.428-27.989 42.428h-71.782l-36.762-59.358 38.502-56.798h52.531l-26.317-44.988 36.796-59.358h73.489l36.796 59.358-28.023 44.988h52.531l36.727 56.798-36.727 59.358h-71.748zM542.447 409.020h-33.28l15.77 25.463 17.51-25.463zM437.419 409.020l-31.471 42.428 29.73 48.469h52.531l27.955-48.469-26.283-42.428h-52.463zM577.434 349.662l-24.474-46.763h-52.531l-27.989 46.763 26.283 44.988h52.497l26.214-44.988zM614.195 409.020h-52.497l-26.249 42.428 26.249 48.469h52.497l29.696-48.469-29.696-42.428z" />
<glyph unicode="&#xe92f;" glyph-name="celf-service-o" d="M829.991 564.263c-14.060 123.707-111.222 223.468-238.080 244.421-126.818 20.913-252.652-42.023-308.342-154.191-13.942 4.529-28.554 6.932-43.244 7.089-79.596 0-144.108-62.346-144.108-139.461 0.236-14.769 2.914-29.381 7.995-43.402-81.684-45.292-121.502-138.24-97.083-226.225s107.008-149.031 201.216-148.638h48.482v53.406h-57.423c-81.841 0.158-148.165 64.315-148.362 143.478-0.039 51.082 28.278 98.225 74.161 123.471 45.135 25.167 48.128 30.011 29.342 75.303-2.875 7.838-4.411 16.148-4.647 24.458 0 44.071 36.943 79.754 82.432 79.754 15.242 0.551 30.326-2.009 44.505-7.404 37.967-14.612 41.866 0 59.707 37.061 44.623 89.561 145.172 139.737 246.548 122.959 101.297-16.699 179.082-96.256 190.543-195.111 4.017-45.529 4.017-45.529 53.366-56.399 93.342-15.478 158.484-97.989 149.583-189.164-9.019-91.294-89.246-160.374-183.887-158.444h-43.52v-53.406h35.682c123.431 0.473 226.422 91.49 238.041 210.432 11.697 118.942-71.798 227.092-192.906 250.014zM720.266 459.697c-2.757 0.236-27.412 1.26-47.183-17.25-14.769-13.785-22.213-33.989-22.213-59.983 0-48.876 0.079-178.727 0.079-178.727 0-25.127-20.48-45.568-45.607-45.568h-218.073c-25.167 0-45.607 20.48-45.607 45.568v107.638c0 25.127 20.441 45.568 45.607 45.568h198.774c10.279 0 18.629 8.31 18.629 18.629 0 10.279-8.35 18.59-18.629 18.59h-198.774c-45.647 0-82.826-37.1-82.826-82.786v-107.638c0-37.612 25.442-69.081 59.865-79.163-4.017-4.332-6.577-10.043-6.577-16.463 0-13.666 11.067-24.773 24.812-24.773 13.706 0 24.812 11.106 24.812 24.773 0 4.844-1.733 9.058-4.096 12.879h181.012c-2.402-3.82-4.096-8.034-4.096-12.879 0-13.666 11.067-24.773 24.812-24.773 13.706 0 24.812 11.106 24.812 24.773 0 5.868-2.363 10.988-5.711 15.202 36.667 8.507 64.118 41.275 64.118 80.423 0 0.039-0.118 129.89-0.118 178.727 0 15.163 3.426 26.073 10.201 32.61 7.641 7.365 18.353 7.522 19.456 7.522h0.118c10.24-0.709 19.102 7.089 19.771 17.29 0.63 10.319-7.089 19.18-17.369 19.81zM586.358 315.746h-179.712c-10.279 0-18.629-8.35-18.629-18.629s8.35-18.59 18.629-18.59h179.712c10.24 0 18.59 8.31 18.59 18.59s-8.389 18.629-18.59 18.629zM586.358 246.784h-179.712c-10.279 0-18.629-8.35-18.629-18.629s8.35-18.629 18.629-18.629h179.712c10.24 0 18.59 8.35 18.59 18.629s-8.389 18.629-18.59 18.629z" />
<glyph unicode="&#xe930;" glyph-name="plus-o" d="M772.71 488.448h-220.211v220.314c0 22.323-18.125 40.448-40.448 40.448-22.374 0-40.499-18.125-40.499-40.448v-220.314h-220.262c-22.323 0-40.448-18.125-40.448-40.448s18.125-40.448 40.448-40.448h220.262v-220.365c0-22.323 18.125-40.397 40.499-40.397 22.323 0 40.448 18.125 40.448 40.397v220.365h220.211c22.426 0 40.499 18.125 40.499 40.448s-18.125 40.448-40.499 40.448zM512 960c-282.778 0-512-229.222-512-512 0-282.726 229.222-512 512-512s512 229.274 512 512c0 282.778-229.222 512-512 512zM512-12.8c-254.515 0-460.8 206.285-460.8 460.8s206.285 460.8 460.8 460.8 460.8-206.285 460.8-460.8-206.285-460.8-460.8-460.8z" />
<glyph unicode="&#xe931;" glyph-name="explanation-1-o" d="M507.136 309.76l0.922-0.256c-11.93 0.563-23.552-3.994-31.898-12.544-9.114-7.987-14.131-19.712-13.67-31.846 0.768-24.627 20.838-44.339 45.568-44.646 11.878 0 23.45 4.352 32.41 12.237 8.653 8.499 13.363 20.275 13.107 32.41 0.614 12.083-4.198 23.91-13.107 32.154-8.909 8.55-20.992 13.107-33.331 12.493zM617.267 642.867c-27.597 22.989-62.874 34.662-98.714 32.717-40.090 2.202-79.411-12.288-108.39-40.090-27.699-28.621-42.291-67.43-40.397-107.264h66.304c-1.485 22.784 4.403 45.414 16.794 64.563 14.899 18.586 38.298 28.365 62.003 25.907 19.354 1.178 38.349-5.581 52.582-18.79 12.493-14.029 19.046-32.41 18.176-51.2-0.307-16.64-6.195-32.666-16.742-45.517l-10.547-11.93c-27.648-22.067-51.712-48.23-71.424-77.619-8.499-18.637-12.595-39.014-11.878-59.443v-10.547h65.382v10.547c-0.307 14.541 3.123 28.928 9.933 41.779 6.451 12.134 15.155 22.938 25.6 31.846 19.149 15.104 37.376 31.334 54.579 48.64 16.23 22.221 24.525 49.254 23.603 76.8 1.741 33.843-11.827 66.714-36.864 89.6zM512 960c-282.726 0-512-229.222-512-512 0-282.726 229.274-512 512-512s512 229.274 512 512c0 282.778-229.274 512-512 512zM512-7.117c-251.341 0-455.117 203.725-455.117 455.117s203.725 455.117 455.117 455.117 455.117-203.725 455.117-455.117-203.776-455.117-455.117-455.117z" />
<glyph unicode="&#xe932;" glyph-name="arrow-under-o" d="M511.795 260.147l-438.682 463.77c-16.691 16.179-43.981 16.179-60.621 0-16.691-16.179-16.691-42.496 0-58.624l466.893-493.619c8.909-8.653 20.89-12.339 32.41-11.725 11.878-0.666 23.91 3.072 32.819 11.725l466.893 493.568c16.691 16.128 16.691 42.445 0 58.675-17.101 16.128-43.981 16.128-60.621 0l-439.091-463.77z" />
<glyph unicode="&#xe933;" glyph-name="magnify-o" d="M896 960h-768c-70.383 0-128-57.617-128-128v-768c0-70.417 57.617-128 128-128h768c70.417 0 128 57.617 128 128v768c0 70.383-57.583 128-128 128v0zM960 64c0-35.191-28.809-64-64-64h-768c-35.191 0-64 28.809-64 64v768c0 35.191 28.809 64 64 64h768c35.191 0 64-28.809 64-64v-768zM448 128h-211.183l217.6 217.6-44.817 44.783-217.6-217.6v211.217c0 19.217-12.8 32.017-32.017 32.017s-31.983-12.834-31.983-32.017v-288.017c0-9.591 3.209-16.009 9.591-22.391s16.009-9.591 22.426-9.591h288.017c19.217 0 32.017 12.8 32.017 32.017-0.034 15.974-12.834 31.983-32.051 31.983v0zM864.017 832h-288.017c-19.217 0-32.017-12.8-32.017-32.017s12.8-32.017 32.017-32.017h211.217l-217.6-217.566 44.783-44.817 217.6 217.6v-211.217c0-19.217 12.8-32.017 32.017-32.017s32.017 12.8 32.017 32.017v288.017c0 9.591-3.209 16.009-9.591 22.391s-12.834 9.626-22.426 9.626v0z" />
<glyph unicode="&#xe934;" glyph-name="narrow-o" d="M896 960h-768c-70.383 0-128-57.617-128-128v-768c0-70.417 57.617-128 128-128h768c70.417 0 128 57.617 128 128v768c0 70.383-57.583 128-128 128v0zM960 64c0-35.191-28.809-64-64-64h-768c-35.191 0-64 28.809-64 64v768c0 35.191 28.809 64 64 64h768c35.191 0 64-28.809 64-64v-768zM160.017 351.983h211.217l-217.634-217.6 44.817-44.783 217.6 217.6v-211.217c0-19.217 12.8-32.017 32.017-32.017s32.017 12.8 32.017 32.017v288.017c0 9.591-3.209 16.009-9.591 22.391s-16.009 9.591-22.391 9.591h-288.051c-19.217 0-32.017-12.8-32.017-32.017 0-15.974 12.8-31.983 32.017-31.983v0zM576 479.983h288.017c19.217 0 32.017 12.8 32.017 32.017s-12.8 32.017-32.017 32.017h-211.217l217.6 217.566-44.783 44.817-217.6-217.6v211.183c0 19.217-12.8 32.017-32.017 32.017s-32.017-12.8-32.017-32.017v-288.017c0-9.591 3.209-16.009 9.591-22.391s12.834-9.591 22.426-9.591v0z" />
<glyph unicode="&#xe935;" glyph-name="label-management-o" d="M939.981 851.2c-6.4 12.8-12.8 25.6-25.549 25.6l-377.651 83.2c-6.349 0-19.2 0-25.6-6.4l-486.4-486.4c-32-32-32-89.6 0-121.6l384-384c12.8-19.2 32-25.6 57.6-25.6s44.8 6.4 64.051 19.2l486.349 486.4c6.4 12.8 6.4 19.2 6.4 32l-83.2 377.6zM485.581 6.4c-12.8-6.4-25.6-6.4-32 0l-384 384c-6.4 6.4-6.4 19.2 0 32l473.6 473.6 339.251-76.8 76.749-339.2-473.6-473.6zM651.981 748.8c-44.8 0-83.2-12.8-115.2-44.8-64-64-64-166.4 0-230.4 32-25.6 70.4-44.8 115.2-44.8s83.2 12.8 115.2 44.8 44.8 70.4 44.8 115.2-12.8 83.2-44.8 115.2c-32 25.6-70.4 44.8-115.2 44.8zM722.432 518.4c-38.451-38.4-102.451-38.4-140.851 0s-38.4 102.4 0 140.8c19.2 12.8 44.851 25.6 70.4 25.6 25.6 0 51.2-6.4 70.451-25.6 12.749-19.2 25.549-44.8 25.549-70.4s-6.4-51.2-25.549-70.4z" />
<glyph unicode="&#xe936;" glyph-name="station-news-o" d="M922.266 927.898h-820.429c-56.115 0-101.734-41.267-101.734-92.058v-508.262h-0.102v-75.981c0-50.688 45.722-92.006 101.837-92.006h51.866v-159.386c0-12.083 6.81-23.194 17.562-28.621 4.454-2.304 9.472-3.482 14.438-3.482 6.707 0 13.312 2.202 18.944 6.195l307.405 179.712c17.766 8.806 35.174 3.686 36.813 5.581h373.35c56.064 0 101.786 41.318 101.786 92.006v584.243c0 50.79-45.619 92.058-101.734 92.058zM960 311.91v-60.314c0-14.899-17.715-28.006-37.786-28.006h-430.438l-114.022-63.795-160.102-96.41v160.205h-115.814c-20.122 0-37.786 13.107-37.786 28.006l0.051 75.981v508.262c0 15.002 17.664 28.058 37.734 28.058h820.378c20.122 0 37.734-13.056 37.734-28.058v-523.93zM828.826 543.846c0-35.346-28.654-64-64-64s-64 28.654-64 64c0 35.346 28.654 64 64 64s64-28.654 64-64zM572.826 543.846c0-35.346-28.654-64-64-64s-64 28.654-64 64c0 35.346 28.654 64 64 64s64-28.654 64-64zM316.774 543.846c0-35.346-28.654-64-64-64s-64 28.654-64 64c0 35.346 28.654 64 64 64s64-28.654 64-64z" />
<glyph unicode="&#xe937;" glyph-name="balance-recharge-o" d="M512 0c-249.6 0-448 198.4-448 448s198.4 448 448 448 448-198.4 448-448c0-19.2 12.8-32 32-32s32 12.8 32 32c0 281.6-230.4 512-512 512s-512-230.4-512-512 230.4-512 512-512c19.2 0 32 12.8 32 32s-12.8 32-32 32zM992 160h-128v128c0 19.2-12.8 32-32 32s-32-12.8-32-32v-128h-128c-19.2 0-32-12.8-32-32s12.8-32 32-32h128v-128c0-19.2 12.8-32 32-32s32 12.8 32 32v128h128c19.2 0 32 12.8 32 32s-12.8 32-32 32zM684.544 418.048v0.358c17.92 0.358 32.256 14.95 32.256 32.614 0 8.653-3.328 16.998-9.267 22.989-5.99 6.298-14.387 9.523-22.989 9.83h-139.981v17.971c0.614 1.178 1.178 2.714 1.485 3.891l136.346 145.613c12.237 12.851 12.237 33.178 0 46.029-5.939 6.246-14.336 9.83-22.989 9.83s-17.050-3.584-23.040-9.83l-124.365-133.939-124.416 133.939c-12.851 12.544-33.126 12.544-45.773 0-12.237-12.851-12.237-33.178 0-46.029l136.397-145.613c0.614-1.485 0.973-2.714 1.434-3.891v-18.227h-140.186c-8.653 0-16.691-3.533-22.989-9.83-6.042-6.349-9.267-14.387-9.267-23.040 0-17.971 14.336-32.666 32.256-32.666h139.93v-37.581h-139.93c-17.92-0.307-32.256-14.899-32.256-32.922 0-17.971 14.336-32.614 32.256-32.614h139.93v-93.594c0-17.92 14.336-32.563 32.256-32.563 18.022 0.358 32.307 14.95 32.307 32.563v93.594h139.981c17.92 0.307 32.256 15.002 32.256 32.614 0 18.022-14.336 32.614-32.256 32.922h-139.981v37.581h140.595z" />
<glyph unicode="&#xe938;" glyph-name="link-o" d="M775.373 960c94.976-5.53 180.634-52.429 224.973-156.723 45.056-105.933 24.986-204.493-52.685-288.666-54.989-59.494-114.074-115.251-171.776-172.237-25.037-24.73-65.229-25.549-86.938-2.714-22.016 23.091-19.61 54.784 6.81 81.306 56.678 56.883 114.125 113.050 170.189 170.394 84.48 86.477 47.002 223.949-69.734 254.976-48.538 12.851-95.13 3.994-132.045-30.413-59.392-55.245-115.302-114.125-174.438-169.472-12.698-11.674-33.382-21.811-49.613-20.736-43.571 2.611-65.536 55.347-35.379 86.733 64.717 67.43 130.714 133.786 200.192 196.198 42.291 37.939 97.331 50.995 170.445 51.354v0zM0 199.117c0.461 72.704 25.754 135.526 76.698 187.392 56.269 57.293 113.357 113.664 170.394 170.189 27.085 26.88 60.416 28.877 83.354 5.837 23.808-24.064 21.555-54.426-6.758-82.79-54.272-54.426-109.466-108.237-163.226-163.328-66.509-67.942-69.325-159.693-8.038-221.286 58.675-58.931 155.546-59.238 216.832 0.461 55.706 54.323 109.875 110.131 165.376 164.557 33.382 32.614 84.070 20.992 92.877-22.886 3.174-15.821-3.226-39.578-14.131-51.149-60.365-63.59-120.627-127.795-186.47-185.498-80.486-70.707-174.848-82.432-273.203-39.578-95.027 41.37-153.446 134.656-153.702 238.080v0zM736.614 613.786c-3.482-6.605-7.526-20.89-16.742-30.208-110.797-112.435-222.054-224.41-333.824-335.821-23.757-23.706-57.549-22.118-79.923 0.461-22.477 22.682-21.914 53.914 3.226 79.155 109.722 109.926 219.802 219.75 329.779 329.37 17.869 17.818 38.758 25.293 63.078 14.746 21.811-9.472 32.819-26.778 34.406-57.702v0z" />
<glyph unicode="&#xe939;" glyph-name="unlink-o" d="M440.115 625.715c16.23-1.075 36.915 9.062 49.51 20.787 59.136 55.347 115.046 114.227 174.438 169.472 36.915 34.355 83.507 43.264 132.045 30.413 116.736-31.027 154.266-168.499 69.734-254.976-56.064-57.395-113.51-113.51-170.189-170.394-26.419-26.522-28.826-58.214-6.81-81.306 21.709-22.835 61.901-22.067 86.938 2.714 57.754 56.934 116.787 112.742 171.776 172.237 77.722 84.173 97.741 182.733 52.685 288.666-44.237 104.243-129.894 151.142-224.87 156.672-73.114-0.358-128.154-13.414-170.445-51.405-69.478-62.413-135.475-128.768-200.192-196.198-30.208-31.386-8.192-84.070 35.379-86.682zM534.682 260.096c-55.501-54.426-109.722-110.234-165.376-164.557-61.286-59.699-158.208-59.392-216.832-0.461-61.235 61.594-58.47 153.344 8.038 221.286 53.76 55.091 108.954 108.902 163.226 163.328 28.314 28.365 30.566 58.675 6.758 82.79-22.989 23.091-56.32 21.043-83.405-5.786-57.037-56.525-114.125-112.896-170.394-170.189-50.944-51.866-76.237-114.688-76.698-187.392 0.256-103.424 58.675-196.71 153.805-238.131 98.355-42.854 192.717-31.078 273.203 39.578 65.792 57.702 126.106 121.907 186.47 185.498 10.957 11.571 17.306 35.328 14.131 51.149-8.858 43.878-59.494 55.501-92.928 22.886zM246.477 654.746c7.066-7.117 17.92-10.342 22.835-13.056 23.654 0.973 36.915 9.165 44.288 25.702 8.243 18.483 2.714 34.458-10.752 48.23-82.483 84.736-19.712 19.661-102.554 104.243-18.995 19.354-42.854 20.070-60.314 3.123-17.357-16.845-18.842-42.598-1.024-60.877 83.968-86.118 22.784-22.016 107.52-107.366zM312.883 756.531c0-10.035 5.325-19.968 6.963-25.446 17.408-16.026 32.614-19.507 49.459-13.107 18.893 7.219 26.368 22.426 26.573 41.626 1.485 118.374-0.102 27.955 1.075 146.33 0.307 27.136-16.026 44.442-40.448 44.8-24.218 0.461-43.418-16.691-43.725-42.24-1.587-120.269 0.563-31.693 0.102-151.962zM59.034 564.173c120.269-1.638 31.59 0.563 152.064 0.051 9.882 0 19.917 5.325 25.293 6.963 16.077 17.408 19.61 32.614 13.158 49.459-7.27 18.944-22.477 26.317-41.626 26.624-118.374 1.434-27.904-0.102-146.33 1.075-27.136 0.205-44.493-16.026-44.8-40.397-0.41-24.218 16.64-43.469 42.24-43.776zM778.854 245.043c-7.066 7.117-17.92 10.342-22.835 13.056-23.654-0.973-36.915-9.216-44.288-25.702-8.243-18.483-2.714-34.509 10.752-48.179 82.534-84.736 19.763-19.712 102.605-104.294 18.995-19.302 42.854-20.070 60.314-3.123 17.357 16.845 18.842 42.598 1.024 60.877-84.019 86.118-22.835 22.016-107.571 107.366zM712.448 143.309c0 9.984-5.325 19.917-6.963 25.395-17.408 16.026-32.614 19.507-49.459 13.107-18.893-7.219-26.368-22.426-26.573-41.626-1.485-118.374 0.051-27.955-1.075-146.278-0.307-27.136 16.026-44.442 40.448-44.8 24.218-0.461 43.418 16.691 43.725 42.24 1.587 120.269-0.563 31.642-0.102 151.962zM966.298 335.616c-120.269 1.638-31.59-0.512-152.064-0.051-9.882 0-19.917-5.325-25.293-6.963-16.026-17.408-19.61-32.614-13.158-49.408 7.27-18.995 22.477-26.368 41.626-26.624 118.374-1.485 27.904 0.051 146.278-1.075 27.136-0.256 44.493 16.026 44.8 40.397 0.461 24.218-16.589 43.418-42.189 43.725z" />
<glyph unicode="&#xe93a;" glyph-name="monitor1-o" d="M1024 905.165v-308.582h-107.418v201.267h-809.165v-201.267h-107.418v308.582h1024zM916.582 98.253h-809.165v201.216h-107.418v-308.582h1024v308.582h-107.418v-201.216zM408.013 126.413l159.642 250.675 92.262-91.392 119.552 234.854 59.034-97.024h106.035v72.858h-69.888l-96.256 188.16-131.891-268.8-86.17 86.733-137.523-208.691-164.045 475.802-120.73-289.024h-58.726v-93.798h96.819l75.878 181.914 156.006-442.266z" />
<glyph unicode="&#xe93b;" glyph-name="cutover-1-o" d="M912.74 361.873c-40.047-201.617-217.823-353.569-431.171-353.569-242.822 0-439.697 196.875-439.697 439.697 0 242.844 196.875 439.719 439.697 439.719 148.079 0 278.728-73.416 358.378-185.633l-78.381-86.506h180.402v199.034l-73.483-81.052c-87.619 118.717-227.996 196.029-386.894 196.029-265.951 0-481.569-215.619-481.569-481.592 0-265.951 215.619-481.569 481.569-481.569 236.544 0 432.818 170.607 473.511 395.442h-42.362z" />
<glyph unicode="&#xe93c;" glyph-name="cutover-o" d="M512 959.978c-282.735 0-511.955-229.22-511.955-512 0-282.735 229.22-511.955 511.955-511.955s511.955 229.22 511.955 511.955c0 282.78-229.22 512-511.955 512zM512-19.478c-258.182 0-467.478 209.297-467.478 467.456 0 258.182 209.297 467.478 467.478 467.478s467.478-209.297 467.478-467.478c0-258.159-209.319-467.456-467.478-467.456zM819.334 396.666h-615.357c-7.257 0-14.18-2.805-19.122-7.836-4.92-4.964-7.346-11.731-6.701-18.521 1.558-12.711 13-22.172 26.401-21.905h538.869l-151.218-107.542c-8.815-6.189-12.399-17.096-8.86-26.936 3.695-9.839 13.557-16.429 24.576-16.362 5.654 0 11.13 1.692 15.649 4.897l212.079 150.84c10.307 7.235 13.267 20.747 6.745 31.299-4.92 7.635-13.668 12.199-23.062 12.065zM204.644 499.245h615.402c7.257 0 14.18 2.872 19.122 7.88 4.875 4.964 7.302 11.665 6.656 18.454-1.18 12.555-12.911 21.905-26.401 21.905h-538.735l151.218 107.587c5.432 3.807 8.993 9.55 9.906 15.917 0.913 6.389-0.913 12.845-5.053 17.898-8.86 10.641-24.954 12.644-36.352 4.563l-212.124-150.862c-10.307-7.235-13.223-20.769-6.701-31.277 4.942-7.591 13.713-12.199 23.062-12.065z" />
<glyph unicode="&#xe93d;" glyph-name="disconnect-o" d="M497.869 149.504h43.981v-111.053h-43.981v111.053zM367.974 788.582l90.010-73.779 31.13 30.976-90.112 73.83zM367.974 123.238v-15.821l31.027-31.027 90.112 73.83-31.13 30.976zM671.846 788.582l-31.078 31.027-90.112-73.83 31.078-30.976zM550.656 150.221l90.112-73.83 31.078 31.027-90.112 73.779zM497.869 857.549h43.981v-111.053h-43.981v111.053zM0 493.312v-115.866c0-123.802 101.018-224.512 225.075-224.512h170.598l-37.018 49.050h-133.581c-97.075 0-176.026 78.746-176.026 175.462v115.866c0 96.717 78.95 175.462 176.026 175.462h133.581l43.674 49.050h-177.254c-124.058 0-225.075-100.71-225.075-224.512zM798.925 717.824h-173.568l39.936-49.050h133.581c97.075 0 176.026-78.746 176.026-175.462v-115.866c0-96.717-78.95-175.462-176.026-175.462h-133.581l-25.6-49.050h159.181c124.109 0 225.075 100.71 225.075 224.512v115.866c0.051 123.802-100.966 224.512-225.024 224.512z" />
<glyph unicode="&#xe93e;" glyph-name="connection-o" d="M798.925 730.47h-171.878v-256.102h-225.434v256.102h-176.538c-124.058 0-225.075-100.71-225.075-224.512v-115.917c0-123.802 101.018-224.512 225.075-224.512h176.486v256h225.382v-256h171.878c124.109 0 225.075 100.71 225.075 224.512v115.917c0.102 123.802-100.915 224.512-224.973 224.512zM352.563 214.63h-127.488c-97.075 0-176.026 78.694-176.026 175.411v115.917c0 96.717 78.95 175.411 176.026 175.411h127.437v-207.002h-68.454v-52.787h68.506v-206.95zM974.95 390.042c0-96.717-78.95-175.411-176.026-175.411h-122.829v206.899h64v52.838h-64v207.002h122.829c97.075 0 176.026-78.694 176.026-175.411v-115.917z" />
<glyph unicode="&#xe93f;" glyph-name="monitor-o" d="M733.696 469.094c0 121.344-100.301 216.422-221.645 216.422-121.395 0-221.696-100.301-221.696-216.422 0-121.446 100.301-221.747 221.696-221.747 121.344 0 221.645 100.301 221.645 221.747zM337.254 469.094c0 96.358 78.285 174.746 174.746 174.746 96.41 0 174.746-78.387 174.746-174.746 0-96.461-78.336-174.746-174.746-174.746s-174.746 78.285-174.746 174.746zM797.030-5.99h-79.155l-58.112 147.814c163.635 58.112 274.483 216.422 274.483 395.878 0.051 232.192-189.952 422.298-422.246 422.298s-422.298-190.106-422.298-422.298c0-179.507 110.848-332.544 269.261-390.656l-58.112-147.763h-58.010c-15.872 0-31.693-15.872-31.693-31.693s15.872-31.59 31.693-31.59h554.189c15.872 0 31.693 15.821 31.693 31.59 0 10.598-15.872 26.419-31.693 26.419zM136.602 537.702c0 204.237 165.581 375.347 375.398 375.347s375.347-165.581 375.347-375.347c0-209.818-165.53-375.347-375.347-375.347s-375.398 165.53-375.398 375.347zM369.51-5.99l47.462 126.72v5.325c31.693-5.325 58.112-10.547 89.754-10.547 26.419 0 58.061 5.274 84.429 10.547v-5.325l47.565-126.72h-269.21zM512 717.158c29.133 0 52.736 23.603 52.736 52.736 0 18.893-10.035 36.301-26.368 45.722-16.333 9.523-36.454 9.523-52.787 0-16.282-9.421-26.317-26.829-26.317-45.722 0-29.133 23.603-52.736 52.736-52.736z" />
<glyph unicode="&#xe940;" glyph-name="cloud-analysis-o" d="M829.952 571.51c-14.021 123.746-111.183 223.508-238.041 244.421-126.779 20.913-252.652-42.023-308.342-154.191-13.942 4.529-28.554 6.932-43.244 7.089-79.596 0-144.108-62.385-144.108-139.461 0.236-14.769 2.914-29.381 7.995-43.402-81.684-45.292-121.541-138.24-97.122-226.225s107.047-149.071 201.216-148.677h48.482v53.445h-57.383c-81.841 0.158-148.165 64.315-148.362 143.478-0.039 51.082 28.278 98.225 74.161 123.471 45.135 25.167 48.128 30.011 29.342 75.303-2.875 7.838-4.411 16.148-4.647 24.458 0 44.071 36.943 79.754 82.432 79.754 15.242 0.551 30.326-2.009 44.505-7.404 37.967-14.612 41.866 0 59.707 37.061 44.662 89.561 145.211 139.737 246.548 122.959 101.297-16.699 179.042-96.256 190.543-195.111 3.978-45.529 3.978-45.529 53.327-56.399 93.381-15.478 158.562-97.989 149.662-189.164-9.019-91.294-89.246-160.374-183.926-158.444h-43.52v-53.445h35.643c123.51 0.473 226.462 91.53 238.119 210.471s-71.798 227.092-192.985 250.014zM750.789 338.432c31.862 10.437 49.073 44.426 38.754 75.934-10.437 31.862-44.426 49.113-76.288 38.676-31.547-10.319-49.073-44.426-38.754-75.973 5.238-16.030 16.817-28.357 30.72-35.407l-39.542-102.873c-11.461 3.742-24.576 3.899-36.943-0.118-17.92-5.868-31.035-19.062-37.612-35.564l-53.642 38.558c11.422 15.36 15.399 35.446 9.019 54.942-10.319 31.547-44.308 48.758-76.17 38.361s-49.073-44.426-38.794-75.934c1.024-3.111 2.363-6.065 3.702-9.058l-42.85-60.495c-13.982 7.365-30.759 9.374-47.143 4.057-31.508-10.319-49.073-44.426-38.754-75.934 10.319-31.586 44.308-48.798 76.17-38.4 31.547 10.319 49.073 44.426 38.754 75.973-2.599 7.995-6.577 14.927-11.894 20.716l40.133 56.202c15.596-13.312 37.061-18.314 58.132-11.422 4.647 1.536 9.058 3.663 13.076 5.986l66.284-47.774c0.079-5.474 1.142-10.87 2.993-16.463 10.319-31.547 44.308-48.798 76.17-38.4 31.547 10.319 49.073 44.465 38.754 75.973-3.86 11.737-10.752 21.465-19.85 28.396l41.472 107.323c7.838-0.906 16.069 0.079 24.103 2.718zM372.933 110.159c-14.494-4.766-30.129 3.111-34.895 17.684-4.726 14.494 3.19 30.090 17.684 34.855 14.533 4.726 30.129-3.151 34.895-17.644 4.766-14.612-3.19-30.169-17.684-34.895zM497.703 251.51c-14.494-4.726-30.129 3.19-34.895 17.684-4.726 14.533 3.19 30.129 17.684 34.855 14.533 4.766 30.129-3.151 34.855-17.644s-3.111-30.129-17.644-34.895zM656.62 154.703c-14.533-4.766-30.129 3.19-34.855 17.644-4.766 14.533 3.111 30.129 17.684 34.895 14.494 4.726 30.090-3.151 34.855-17.684 4.726-14.533-3.151-30.129-17.684-34.855zM705.851 386.954c-4.726 14.572 3.111 30.129 17.644 34.895 14.533 4.726 30.129-3.151 34.855-17.684 5.081-14.415-2.796-30.011-17.644-34.855-14.533-4.766-30.090 3.151-34.855 17.644z" />
<glyph unicode="&#xe941;" glyph-name="multi-source-cloud-o" d="M327.936 473.6h43.264v25.587h-39.667c-35.494 0-62.656 27.149-62.656 62.656 0 31.322 20.89 56.384 52.211 62.656l12.531 2.086 4.173 12.531c14.63 39.693 54.298 68.915 98.15 68.915 45.952 0 80.128-29.222 94.733-73.088l6.259-20.877 20.877 6.259c6.272 2.086 12.531 4.173 18.803 4.173 35.494 0 62.656-27.149 62.656-62.656s-27.149-62.656-62.656-62.656h-90.214v-25.587h93.824c47.27 0 85.939 39.77 85.939 87.040s-38.669 85.939-85.939 85.939c-8.589 0-19.328-2.15-27.93-4.301-15.040 51.546-58.944 90.227-116.954 90.227-55.846 0-105.267-36.531-122.445-88.077-40.819-6.451-70.899-40.819-70.899-83.789 0-47.27 38.682-87.040 85.939-87.040zM767.923 490.598v-119.514h25.523v123.699c0 23.642-19.328 42.957-42.944 42.957h-59.315v-25.677h55.258c10.739 0.013 21.478-10.726 21.478-21.466zM396.8 473.6h64v25.587h-64v-25.587zM601.6 167.334h64v24.064h-64v-24.064zM512 960c-282.778 0-512-229.222-512-512s229.222-512 512-512 512 229.222 512 512-229.222 512-512 512zM512-38.4c-268.621 0-486.4 217.779-486.4 486.4s217.779 486.4 486.4 486.4 486.4-217.779 486.4-486.4-217.779-486.4-486.4-486.4zM709.12 339.213c-8.602 0-19.328-2.15-27.93-4.301-15.040 51.558-64.448 90.227-122.445 90.227-55.846 0-105.28-36.531-122.445-88.077-40.819-6.451-70.899-40.819-70.899-83.789 0-47.258 38.669-85.939 85.926-85.939h124.672v24.064h-121.549c-35.635 0-62.899 27.264-62.899 62.899 0 31.462 20.979 56.627 52.429 62.912l12.57 2.086 4.186 12.582c14.682 39.834 54.515 69.184 98.547 69.184 46.131 0 85.965-29.35 100.646-73.37l6.285-20.979 20.979 6.285c6.272 2.099 12.57 4.198 20.966 4.198 35.635 0 62.899-27.264 62.899-62.912 0-35.635-27.264-62.899-62.899-62.899h-16.96v-24.064h17.92c47.258 0 85.926 38.669 85.926 85.939s-38.656 85.952-85.926 85.952zM254.976 341.696v106.022h-23.974v-110.157c0-23.642 19.341-42.97 42.97-42.97h71.603v25.638h-69.107c-10.739 0-21.491 10.726-21.491 21.466z" />
<glyph unicode="&#xe942;" glyph-name="resource-monitoring-o" d="M376.781 587.597l-1.779-1.139c-8.87-7.027-39.040-29.888-51.469-68.57-1.779-8.794 3.546-17.574 12.429-19.341 7.091-1.754 14.182 3.52 15.962 10.547 10.65 31.654 33.728 48.102 39.040 51.61l1.779 1.139c31.936 21.094 62.118 22.861 78.080 21.094 7.104 0 14.195 3.507 15.974 10.547 1.779 8.806-3.546 17.587-12.429 17.587-21.299 3.533-58.56 2.918-97.587-23.475zM280.947 548.966c7.104 0 14.195 5.274 15.974 12.314 7.104 40.435 39.040 73.856 46.131 79.13l1.779 1.754c46.131 38.682 95.821 42.214 117.107 40.448 7.104 0 14.195 5.274 14.195 12.301 1.779 8.806-5.325 17.587-14.195 17.587-28.39 1.766-85.158-3.507-138.406-47.475-10.65-8.794-47.91-45.709-58.547-96.717 0-8.794 7.091-17.6 15.962-19.341zM562.509 582.95c15.962 1.766 46.131 0 78.080-21.094l1.779-1.139c-0.589 0.384 29.696-23.859 39.040-51.61 1.779-7.027 8.87-12.301 15.974-10.547 8.858 1.766 14.182 10.547 12.416 19.341-12.416 38.682-42.586 61.555-51.469 68.57l-3.533 1.664c-37.274 24.614-74.534 24.73-95.821 22.963-8.87 0-14.195-8.794-12.429-17.587 1.766-7.053 8.87-10.56 15.962-10.56zM512 960c-282.778 0-512-229.222-512-512s229.222-512 512-512 512 229.222 512 512-229.222 512-512 512zM512-38.4c-268.621 0-486.4 217.779-486.4 486.4s217.779 486.4 486.4 486.4 486.4-217.779 486.4-486.4-217.779-486.4-486.4-486.4zM665.306 413.005c0 23.386-7.859 46.771-23.59 64.307-25.562 29.235-75.597 46.771-126.733 46.771-49.165 0-88.858-15.59-116.39-44.826-17.715-19.482-27.533-44.826-29.517-70.157-49.165-11.686-100.288-58.458-100.288-118.874s45.222-103.283 116.019-111.091l37.594 0.013v26.061h-40.102c-28.608 4.045-87.872 18.227-87.872 81.011 0 50.624 47.002 91.123 87.872 95.181l16.346 2.022v16.205c-2.048 22.272 6.131 44.544 22.477 60.749 22.477 22.285 55.629 34.432 96.499 34.432 44.954 0 84.506-12.147 104.922-40.499 14.31-16.205 20.442-36.467 18.406-56.717l-2.048-14.17 18.406-2.022c51.085-4.045 87.872-46.579 87.872-97.203 0-44.544-42.931-68.864-71.526-78.989h-135.667v102.131c22.848 6.054 38.63 25.677 40.154 49.843 0 28.672-22.848 51.328-51.802 51.328s-51.814-22.656-51.814-51.328c0-24.166 14.246-43.789 37.107-49.843v-102.131h-50.829v-26.048l63.923 0.013c0.038 0 0.064-0.026 0.090-0.026 0.038 0 0.077 0.026 0.102 0.026l143.104 0.026 5.146 1.882c60.966 21.44 94.4 60.416 94.4 109.133 0.013 58.47-45.222 109.146-102.259 122.79zM524.813 331.494c-13.709 0-25.894 12.070-25.894 25.664 0 13.606 12.186 25.677 25.894 25.677s25.894-12.070 25.894-25.677c0-13.581-12.186-25.664-25.894-25.664zM710.362 664.397c-53.235 43.955-110.016 49.229-138.406 47.475-8.87 0-15.974-8.806-14.195-17.587 0-7.040 7.104-12.314 14.195-12.314 21.286 1.766 70.976-1.766 117.107-40.448l1.779-1.754c5.312-3.52 37.261-36.928 46.131-77.376 1.779-7.027 8.87-12.301 15.974-12.301 8.87 1.754 15.962 10.547 15.962 17.587-10.637 50.995-47.898 87.923-58.547 96.717z" />
<glyph unicode="&#xe943;" glyph-name="automation-o" d="M688.896 255.104l-4.429 0.115c-0.755-0.013-1.485-0.115-2.253-0.115h6.682zM687.654 461.133h-75.469c-0.73 0-1.344-0.282-2.035-0.397-8.474 29.542-35.93 51.162-68.582 51.162h-60.749c-27.866 0-51.917-15.757-63.667-38.707l-41.139 35.174c-5.274 4.467-13.312 3.968-17.843-1.242-4.518-5.197-4.006-13.133 1.267-17.6l20.979-17.933h-34.24c-43.213 0-78.285 34.598-78.285 77.248 0 42.637 35.072 77.235 78.285 77.235h63.706c3.776-35.392 34.061-62.938 70.938-62.938h60.749c19.571 0 37.811 7.411 51.226 21.158 13.414 13.235 20.378 30.694 20.109 49.229 0 38.899-31.91 70.374-71.334 70.374h-60.749c-32.602 0-60.006-21.555-68.531-50.995h-63.027c-58.176 0-105.472-46.669-105.472-104.064s47.296-104.064 105.472-104.064h41.562l-36.134-30.925c-5.466-4.877-5.99-12.826-1.318-18.202 2.598-2.829 6.234-4.365 9.869-4.365 3.123 0 5.978 1.024 8.576 3.072l39.040 33.408c6.477-32.294 35.315-56.64 69.965-56.64h60.749c19.571 0 37.811 7.411 51.226 21.158 11.763 11.61 18.24 26.547 19.546 42.522h79.322c42.394 0 76.787-33.92 76.787-75.75s-34.406-75.763-76.787-75.763h-41.267l16.64 14.144c5.286 4.723 5.798 12.442 1.254 17.664-4.787 5.235-12.608 5.722-17.894 1.254l-39.078-33.242c-0.499-0.102-1.011-0.205-1.51-0.282-8.883 28.864-36.045 49.856-68.237 49.856h-60.749c-39.424 0-71.334-31.475-71.334-70.374s31.91-70.387 71.334-70.387h31.181v25.894h-34.419c-25.19 0-45.44 19.994-45.44 44.838s20.25 44.838 45.44 44.838h66.253c25.19 0 45.453-20.262 45.453-45.107 0.269-11.597-4.109-22.682-12.595-31.053-7.194-7.117-16.282-11.469-26.278-12.877v-25.69c16.154 1.894 31.040 8.678 42.394 20.314 8.998 8.883 14.886 19.712 17.766 31.45l40.678-34.598c2.56-2.022 5.389-3.021 8.461-3.021 3.584 0 7.168 1.51 9.728 4.288 4.608 5.312 4.096 13.389-1.28 17.933l-32.064 27.264 48.397-1.203c59.597 1.178 106.624 48.282 106.624 103.859-0.013 56.307-46.4 102.080-103.462 102.080zM477.581 678.707h66.253c25.19 0 45.453-20.262 45.453-45.107 0.269-11.597-4.109-22.682-12.595-31.053-8.755-8.653-20.25-13.517-32.845-13.517h-66.253c-25.19 0-45.44 19.994-45.44 44.838s20.237 44.838 45.427 44.838zM576.678 410.547c-8.755-8.653-20.25-13.517-32.845-13.517h-66.253c-25.19 0-45.44 19.994-45.44 44.838s20.25 44.838 45.44 44.838h66.253c25.19 0 45.453-20.262 45.453-45.107 0.269-11.597-4.122-22.682-12.608-31.053zM512 960c-282.778 0-512-229.222-512-512s229.222-512 512-512 512 229.222 512 512-229.222 512-512 512zM512-38.4c-268.621 0-486.4 217.779-486.4 486.4s217.779 486.4 486.4 486.4 486.4-217.779 486.4-486.4-217.779-486.4-486.4-486.4z" />
<glyph unicode="&#xe944;" glyph-name="calculation-o" d="M716.841 694.436c0 22.61-18.35 40.96-41.001 40.96h-368.64c-22.61 0-40.96-18.35-40.96-40.96v-450.642c0-22.61 18.35-40.96 40.96-40.96h247.050v40.96h-226.55c-11.346 0-20.5 9.175-20.5 20.5v101.765h216.965c11.325 0 20.48 9.175 20.48 20.5 0 11.305-9.155 20.48-20.48 20.48h-216.965v122.9h368.64v-61.46h41.001v225.956zM675.84 570.9h-368.64v103.055c0 11.305 9.155 20.48 20.5 20.48h327.66c11.325 0 20.48-9.175 20.48-20.48v-103.055zM491.52 939.602c-271.442 0-491.52-220.099-491.52-491.602s220.078-491.602 491.52-491.602c151.675 0 287.232 68.71 377.405 176.681h-55.255c-81.797-83.702-195.871-135.721-322.15-135.721-248.832 0-450.56 201.769-450.56 450.642s201.728 450.642 450.56 450.642 450.56-201.769 450.56-450.642c0-19.988-1.434-39.608-3.953-58.88h41.329c2.314 19.313 3.645 38.932 3.645 58.88-0.020 271.503-220.099 491.602-491.581 491.602zM532.48 345.58c-11.305 0-20.48-9.175-20.48-20.48s9.175-20.48 20.48-20.48h161.915c11.325 0 20.521 9.175 20.521 20.48s-9.196 20.48-20.521 20.48h-161.915zM348.18 488.96c-11.325 0-20.48-9.175-20.48-20.48s9.155-20.48 20.48-20.48h73.585c11.305 0 20.48 9.175 20.48 20.48s-9.175 20.48-20.48 20.48h-73.585zM348.18 325.1c-11.325 0-20.48-9.175-20.48-20.48s9.155-20.48 20.48-20.48h73.585c11.305 0 20.48 9.175 20.48 20.48s-9.175 20.48-20.48 20.48h-73.585zM421.765 652.841h-73.585c-11.325 0-20.48-9.175-20.48-20.5 0-11.305 9.155-20.48 20.48-20.48h73.585c11.305 0 20.48 9.175 20.48 20.48 0 11.325-9.175 20.5-20.48 20.5z" />
</font>
</defs>
</svg>
